<?xml version="1.0" encoding="UTF-8"?>
<svg version="1.1" xmlns="http://www.w3.org/2000/svg" width="616" height="570">
<path d="M0 0 C4.220733 2.4434484 4.220733 2.4434484 8.87011719 3.62792969 C11.5443226 2.7407977 11.5443226 2.7407977 14.35058594 1.27636719 C15.4241333 0.75671387 16.49768066 0.23706055 17.60375977 -0.29833984 C19.31341919 -1.13921143 19.31341919 -1.13921143 21.05761719 -1.99707031 C31.1855705 -6.82123502 40.92752444 -10.89737892 51.87011719 -13.37207031 C52.8975 -13.613125 53.92488281 -13.85417969 54.98339844 -14.10253906 C85.04865228 -19.9128151 118.34355988 -13.17293055 143.7109375 3.86425781 C147.58416612 6.60967444 151.24216691 9.56745292 154.87011719 12.62792969 C155.75183594 13.36914062 156.63355469 14.11035156 157.54199219 14.87402344 C177.13429887 31.9412347 193.96462298 55.56001991 196.16723633 82.22485352 C196.2501468 83.59467822 196.32931104 84.96473338 196.40527344 86.33496094 C196.44825058 87.06035568 196.49122772 87.78575043 196.5355072 88.53312683 C196.67115669 90.83538322 196.8019576 93.13788527 196.93261719 95.44042969 C197.02409337 97.00750573 197.11588684 98.57456329 197.20800781 100.14160156 C197.43238454 103.97017335 197.65241518 107.7989728 197.87011719 111.62792969 C198.96469238 112.00602783 200.05926758 112.38412598 201.18701172 112.77368164 C227.22718936 121.84033932 250.52852122 141.67571115 262.87011719 166.62792969 C277.02090194 197.94064523 279.43528985 232.80898832 267.59667969 265.30371094 C261.45293495 281.19453858 251.53247381 294.31216429 239.87011719 306.62792969 C238.71576172 307.8615625 238.71576172 307.8615625 237.53808594 309.12011719 C227.06848818 319.97873069 215.54094572 328.29654985 201.87011719 334.62792969 C201.21011719 334.62792969 200.55011719 334.62792969 199.87011719 334.62792969 C199.18745819 340.00386931 198.8379959 345.17565934 198.95361328 350.59887695 C199.54328153 381.20265921 185.74192963 409.05895626 165.22949219 431.19824219 C144.25997886 452.79267478 115.36660199 467.97984356 84.83105469 468.96386719 C82.30255452 468.99397035 79.77379409 469.00645398 77.24511719 469.00292969 C76.25449783 469.00211395 76.25449783 469.00211395 75.24386597 469.00128174 C52.32848377 468.91466871 30.50496443 462.31743241 13.07324219 446.94824219 C10.06301308 445.14423964 8.33392995 445.12750448 4.87011719 445.62792969 C1.82951653 447.33095419 1.82951653 447.33095419 -1.12988281 449.69042969 C-19.65549071 463.24960942 -39.99923205 468.07505381 -62.62988281 468.06542969 C-63.38244354 468.06616486 -64.13500427 468.06690002 -64.91036987 468.06765747 C-76.95907678 468.03676786 -87.81313097 466.9416218 -99.12988281 462.62792969 C-99.85900879 462.36560547 -100.58813477 462.10328125 -101.33935547 461.83300781 C-131.54239398 450.88826129 -157.40047508 428.0414131 -171.20800781 398.97167969 C-177.63758801 384.82916994 -181.96404121 369.62910073 -182.32910156 354.05761719 C-181.98604239 342.21285123 -181.98604239 342.21285123 -186.50097656 331.94433594 C-189.66222499 330.49320369 -192.7937144 329.60000673 -196.12988281 328.62792969 C-204.38259821 323.43020405 -211.63550433 316.74399971 -218.66845703 310.02197266 C-220.09420437 308.66196309 -221.5357049 307.31852887 -222.97753906 305.97558594 C-236.89735876 292.6431004 -245.98747251 276.8476062 -252.50488281 258.81542969 C-252.74368164 258.15889404 -252.98248047 257.5023584 -253.22851562 256.82592773 C-256.95584053 245.9581595 -257.53698142 235.09273121 -257.50488281 223.69042969 C-257.50433899 222.96348907 -257.50379517 222.23654846 -257.50323486 221.48757935 C-257.46214066 209.5155225 -256.59308187 198.14273482 -253.12988281 186.62792969 C-252.92089355 185.93006348 -252.7119043 185.23219727 -252.49658203 184.51318359 C-247.74656738 169.3238109 -239.89936856 155.35123462 -229.12988281 143.62792969 C-228.69337402 143.14904297 -228.25686523 142.67015625 -227.80712891 142.17675781 C-214.44589708 127.67970346 -198.63023696 116.00399341 -179.12988281 111.62792969 C-179.14148438 110.95890625 -179.15308594 110.28988281 -179.16503906 109.60058594 C-179.51222899 72.64965762 -169.45567465 44.28484399 -143.37988281 17.50292969 C-137.51148155 11.65043702 -131.1662274 7.03078858 -124.12988281 2.62792969 C-123.01742187 1.92796875 -121.90496094 1.22800781 -120.75878906 0.50683594 C-112.3167554 -4.64153919 -103.57741765 -8.46815967 -94.12988281 -11.37207031 C-93.4442627 -11.58379883 -92.75864258 -11.79552734 -92.05224609 -12.01367188 C-61.18817153 -21.04461602 -27.65425557 -15.58694405 0 0 Z M-132.12988281 21.62792969 C-133.13921875 22.46066406 -134.14855469 23.29339844 -135.18847656 24.15136719 C-155.67867497 41.66419041 -166.24059003 66.8075682 -168.99462891 93.25878906 C-169.29636964 98.54415384 -168.32601021 103.49256998 -167.12988281 108.62792969 C-166.50235107 108.66756836 -165.87481934 108.70720703 -165.22827148 108.74804688 C-132.57716293 110.90119403 -105.13608195 118.69793285 -77.55566406 136.42871094 C-76.96736816 136.80592285 -76.37907227 137.18313477 -75.77294922 137.57177734 C-74.30014984 138.51848315 -72.83006989 139.46941647 -71.36035156 140.42089844 C-69.11282981 141.86589758 -69.11282981 141.86589758 -66.12988281 141.62792969 C-65.9795459 140.7988208 -65.82920898 139.96971191 -65.67431641 139.11547852 C-57.34749195 93.60746325 -44.17368939 49.98561635 -7.00488281 19.44433594 C-4.853795 17.36046962 -3.5092903 15.27897845 -2.12988281 12.62792969 C-2.12988281 11.96792969 -2.12988281 11.30792969 -2.12988281 10.62792969 C-45.90704934 -10.67904762 -93.55716226 -10.24777747 -132.12988281 21.62792969 Z M25.8515625 7.68359375 C23.56378946 8.77392225 21.24165519 9.73500243 18.87011719 10.62792969 C20.28261617 15.49616518 23.22930921 18.14659135 26.93261719 21.37792969 C28.11978553 22.4484691 29.30598018 23.52008925 30.49121094 24.59277344 C31.07112793 25.11339355 31.65104492 25.63401367 32.24853516 26.17041016 C65.88657627 56.40514449 78.13452012 100.1352093 82.87011719 143.62792969 C88.2272053 141.06405437 93.06985007 138.27000303 97.93261719 134.87792969 C122.12180984 118.55105273 147.97938396 111.51755638 176.82568359 109.27294922 C177.72722168 109.20188965 178.62875977 109.13083008 179.55761719 109.05761719 C180.36585938 108.99815918 181.17410156 108.93870117 182.00683594 108.87744141 C183.88218428 108.81819595 183.88218428 108.81819595 184.87011719 107.62792969 C189.57246818 85.73112354 181.32798631 62.01088454 169.87011719 43.62792969 C167.38667345 40.10595493 164.718186 36.85738136 161.87011719 33.62792969 C161.42796875 33.04398438 160.98582031 32.46003906 160.53027344 31.85839844 C151.82452021 20.55944212 138.39064279 12.95681123 125.87011719 6.62792969 C124.7525 6.06203125 123.63488281 5.49613281 122.48339844 4.91308594 C90.82776926 -9.8095913 56.62774373 -7.31758854 25.8515625 7.68359375 Z M-2.06738281 25.50292969 C-2.57970459 26.00469727 -3.09202637 26.50646484 -3.61987305 27.0234375 C-5.14742932 28.5364547 -6.64154132 30.07642791 -8.12988281 31.62792969 C-8.91621094 32.42972656 -9.70253906 33.23152344 -10.51269531 34.05761719 C-21.33062338 45.5734761 -29.8910205 58.63769302 -37.12988281 72.62792969 C-37.65775391 73.63678223 -37.65775391 73.63678223 -38.19628906 74.66601562 C-50.4794615 98.42783537 -55.3029068 123.89602588 -55.31738281 150.50292969 C-55.32962891 151.67984375 -55.341875 152.85675781 -55.35449219 154.06933594 C-55.36753401 161.97267806 -55.10071971 169.93359804 -53.12988281 177.62792969 C-50.31701905 179.03436157 -48.84079976 178.2400809 -45.80957031 177.48339844 C-44.18402222 177.08725342 -44.18402222 177.08725342 -42.52563477 176.68310547 C-41.36378662 176.39677246 -40.20193848 176.11043945 -39.00488281 175.81542969 C-3.50268955 167.45097586 29.95889076 170.0337048 65.24487305 178.10888672 C67.91461166 178.72490853 67.91461166 178.72490853 70.87011719 178.62792969 C71.483626 173.70794642 72.06804996 168.78593959 72.61767578 163.85839844 C72.83166599 161.96766873 73.06199806 160.07879969 73.29589844 158.19042969 C77.2414223 119.40070115 62.66439855 76.02260493 38.37011719 45.81542969 C36.88318481 44.07501323 35.38300945 42.34582793 33.87011719 40.62792969 C33.06703125 39.69207031 32.26394531 38.75621094 31.43652344 37.79199219 C21.57660878 26.05007174 21.57660878 26.05007174 8.11621094 20.26074219 C3.51725878 20.32921294 1.04629919 22.28419625 -2.06738281 25.50292969 Z M-164.12988281 119.62792969 C-163.01145246 125.95221186 -161.20467142 131.24788573 -158.12988281 136.87792969 C-157.73542969 137.60882813 -157.34097656 138.33972656 -156.93457031 139.09277344 C-143.75464285 162.84151066 -118.21555782 186.24849362 -92.15234375 195.31591797 C-88.56120258 195.86993516 -85.58148363 193.60811985 -82.50488281 191.94042969 C-81.07679579 191.19387053 -79.64710526 190.45037063 -78.21582031 189.70996094 C-77.52069336 189.3498291 -76.82556641 188.98969727 -76.109375 188.61865234 C-72.22928969 186.67669549 -68.20179757 185.1157447 -64.12988281 183.62792969 C-63.06493458 168.07028044 -63.06493458 168.07028044 -67.12988281 153.62792969 C-69.05631072 151.98983729 -69.05631072 151.98983729 -71.39941406 150.56152344 C-72.71703735 149.71738892 -72.71703735 149.71738892 -74.0612793 148.85620117 C-75.01204346 148.26524658 -75.96280762 147.67429199 -76.94238281 147.06542969 C-77.92343994 146.45062744 -78.90449707 145.8358252 -79.9152832 145.20239258 C-106.65713704 128.66075286 -132.23593111 119.05268807 -164.12988281 119.62792969 Z M100.81640625 143.37548828 C98.85255249 144.63923261 96.8642059 145.85129885 94.86230469 147.05371094 C93.90167114 147.64067749 93.90167114 147.64067749 92.92163086 148.23950195 C91.17267065 149.30766194 89.41806665 150.36656545 87.66308594 151.42480469 C83.64779269 154.59211293 82.20896123 157.63625096 81.35839844 162.63574219 C81.30039062 163.66441406 81.24238281 164.69308594 81.18261719 165.75292969 C81.11816406 166.873125 81.05371094 167.99332031 80.98730469 169.14746094 C80.81347726 174.31013551 80.78636637 179.46329571 80.87011719 184.62792969 C81.69253906 184.93085938 82.51496094 185.23378906 83.36230469 185.54589844 C89.66732723 187.91210205 95.72543605 190.4058077 101.65136719 193.61230469 C105.92917982 195.57045836 108.01814257 195.87763123 112.65527344 194.51855469 C117.19926174 192.63916539 121.22677247 190.09849283 125.30761719 187.37792969 C126.05624023 186.88486328 126.80486328 186.39179688 127.57617188 185.88378906 C132.8774143 182.36193624 137.97609917 178.70057406 142.87011719 174.62792969 C143.89621094 173.80808594 144.92230469 172.98824219 145.97949219 172.14355469 C161.37844976 159.68785717 177.86292397 139.76407559 181.87011719 119.62792969 C151.0857843 118.59988146 126.4060833 126.63186449 100.81640625 143.37548828 Z M190.87011719 122.62792969 C190.60199219 123.40394531 190.33386719 124.17996094 190.05761719 124.97949219 C181.43228027 148.75591434 165.0360709 169.46962891 144.87011719 184.62792969 C144.32597168 185.04171875 143.78182617 185.45550781 143.22119141 185.88183594 C135.46639401 191.74772841 127.76381325 196.62087981 118.87011719 200.62792969 C118.87011719 201.94792969 118.87011719 203.26792969 118.87011719 204.62792969 C119.96324219 205.10230469 121.05636719 205.57667969 122.18261719 206.06542969 C136.16551528 213.13047293 148.17804941 226.82812122 157.76074219 238.96386719 C159.1731928 240.74774 160.62200706 242.50338188 162.10449219 244.22949219 C181.21426216 266.56815432 190.36121289 294.40920175 196.87011719 322.62792969 C202.12261533 322.16351204 205.36915374 321.08072356 209.68261719 318.06542969 C210.71257812 317.34613281 211.74253906 316.62683594 212.80371094 315.88574219 C217.27172039 312.59592122 221.59644734 309.16502448 225.87011719 305.62792969 C226.71509766 304.96857422 226.71509766 304.96857422 227.57714844 304.29589844 C244.05613997 291.29532201 255.9329883 269.75805906 260.87011719 249.62792969 C261.16789063 248.47808594 261.46566406 247.32824219 261.77246094 246.14355469 C265.68620473 228.75715367 265.41871724 209.85747535 260.87011719 192.62792969 C260.60328125 191.6134375 260.33644531 190.59894531 260.06152344 189.55371094 C253.00254232 166.05514714 237.66977161 142.77503899 215.95947266 130.55224609 C208.0410247 126.40935184 199.9443003 122.62792969 190.87011719 122.62792969 Z M-212.12988281 140.62792969 C-212.83628906 141.26472656 -213.54269531 141.90152344 -214.27050781 142.55761719 C-233.71670138 161.00853313 -243.10450528 185.4987353 -246.12988281 211.62792969 C-246.24154785 212.56491699 -246.35321289 213.5019043 -246.46826172 214.46728516 C-247.20513665 221.61671264 -246.9662512 228.26427061 -246.00488281 235.37792969 C-245.8651001 236.42360107 -245.72531738 237.46927246 -245.58129883 238.54663086 C-241.51860108 266.84174138 -226.35357534 292.94832 -203.57128906 310.42480469 C-193.23337003 318.8507671 -193.23337003 318.8507671 -181.12988281 322.62792969 C-180.9795459 321.9846875 -180.82920898 321.34144531 -180.67431641 320.67871094 C-173.29064959 289.38044675 -161.83382267 261.78231437 -140.12988281 237.62792969 C-139.33324219 236.72171875 -138.53660156 235.81550781 -137.71582031 234.88183594 C-127.03103551 222.82014588 -115.50712093 212.65248729 -102.12988281 203.62792969 C-103.4646938 199.62349673 -105.99905157 198.57870959 -109.44238281 196.50292969 C-119.26022634 190.37997351 -128.32655667 183.60249773 -136.82910156 175.73730469 C-138.90120921 173.83757951 -141.02829412 172.04566588 -143.19238281 170.25292969 C-156.56666315 158.51686441 -165.25719836 142.24443848 -172.65722656 126.34667969 C-173.85213271 123.48969892 -173.85213271 123.48969892 -176.31738281 122.62792969 C-189.8931835 122.62792969 -202.54447789 131.86674748 -212.12988281 140.62792969 Z M-51.12988281 188.62792969 C-48.7135294 223.06096584 -27.84063683 256.67241251 -5.12988281 281.62792969 C-4.37449219 282.46710938 -3.61910156 283.30628906 -2.84082031 284.17089844 C1.09985282 288.34740336 4.40450414 290.80605867 9.87011719 292.62792969 C16.48085081 287.81134089 21.75634443 282.71277524 26.79199219 276.26855469 C28.55179127 274.03241902 30.37159806 271.95869791 32.30761719 269.87792969 C50.27673147 249.34770027 68.15297571 216.51306584 67.87011719 188.62792969 C53.15763936 184.34993635 38.71940884 181.36783668 23.46435547 179.88183594 C21.25071824 179.66518031 19.04388339 179.41831749 16.83496094 179.15917969 C-5.52429376 176.9802047 -30.0220188 181.32625788 -51.12988281 188.62792969 Z M77.87011719 193.62792969 C77.66032227 194.46263794 77.66032227 194.46263794 77.44628906 195.31420898 C67.26454358 235.34140054 49.55787978 268.2758696 19.40136719 296.93652344 C17.63664622 298.65789787 17.63664622 298.65789787 16.87011719 301.62792969 C46.42194462 321.88805998 75.85510757 335.65849243 111.87011719 339.62792969 C112.9176416 339.74974609 112.9176416 339.74974609 113.98632812 339.87402344 C137.21648632 342.41918253 163.1356217 339.42916075 184.87011719 330.62792969 C186.85442405 328.64362283 186.20816293 324.95178257 186.24511719 322.25292969 C186.23523383 298.849128 174.85238158 274.9830258 160.87011719 256.62792969 C160.09925781 255.56574219 159.32839844 254.50355469 158.53417969 253.40917969 C138.55225159 226.4310795 110.90726748 206.20218173 79.87011719 193.62792969 C79.21011719 193.62792969 78.55011719 193.62792969 77.87011719 193.62792969 Z M-68.89160156 195.58496094 C-69.83817627 196.03315186 -70.78475098 196.48134277 -71.76000977 196.94311523 C-72.76894287 197.437229 -73.77787598 197.93134277 -74.81738281 198.44042969 C-75.85016357 198.9416333 -76.88294434 199.44283691 -77.94702148 199.95922852 C-116.2196744 218.84737865 -150.34498542 252.53585509 -164.45361328 293.52783203 C-168.27440553 305.3929782 -170.90227027 317.12993166 -171.12988281 329.62792969 C-136.44857012 341.77818549 -97.88029974 344.96073953 -62.12988281 334.62792969 C-61.35241699 334.40540527 -60.57495117 334.18288086 -59.77392578 333.95361328 C-40.86578566 328.34768229 -22.2357544 319.41182792 -7.12988281 306.62792969 C-6.45570313 306.07878906 -5.78152344 305.52964844 -5.08691406 304.96386719 C-3.75236999 303.87057937 -2.4371792 302.75365714 -1.12988281 301.62792969 C-1.59118043 296.96552873 -3.23649121 295.13448552 -6.62988281 292.00292969 C-11.95719489 286.87208586 -16.60231669 281.47068196 -21.12988281 275.62792969 C-21.55382324 275.08571777 -21.97776367 274.54350586 -22.41455078 273.98486328 C-36.06053126 256.42008826 -46.58254134 237.14182998 -53.73925781 216.08496094 C-53.96354965 215.42570618 -54.18784149 214.76645142 -54.41893005 214.08721924 C-55.54226125 210.76967249 -56.64438962 207.44675878 -57.71801758 204.11279297 C-58.31827759 202.29303955 -58.31827759 202.29303955 -58.93066406 200.43652344 C-59.28298096 199.34138428 -59.63529785 198.24624512 -59.99829102 197.11791992 C-60.55842896 195.88537476 -60.55842896 195.88537476 -61.12988281 194.62792969 C-64.81893494 193.39824565 -65.47140055 193.9580774 -68.89160156 195.58496094 Z M7.87011719 307.62792969 C6.86851562 308.30339844 5.86691406 308.97886719 4.83496094 309.67480469 C3.49259729 310.57597189 2.15014461 311.47700648 0.80761719 312.37792969 C0.15083984 312.82136719 -0.5059375 313.26480469 -1.18261719 313.72167969 C-4.41756186 315.88893326 -7.65203081 317.95140301 -11.06347656 319.83105469 C-14.1865154 321.28653412 -14.1865154 321.28653412 -15.12988281 323.62792969 C-16.32171228 331.60727025 -16.33037543 339.57346896 -16.31738281 347.62792969 C-16.31677856 348.31701416 -16.31617432 349.00609863 -16.31555176 349.71606445 C-16.26810076 369.6385386 -13.85922857 387.6909653 -5.75488281 406.06542969 C-5.39193115 406.89405518 -5.02897949 407.72268066 -4.6550293 408.57641602 C-0.18456955 418.34475387 -0.18456955 418.34475387 7.74511719 425.12792969 C8.44636719 425.29292969 9.14761719 425.45792969 9.87011719 425.62792969 C22.74019789 404.70433772 32.00656589 384.64355546 32.03808594 359.61621094 C32.04141434 358.68495895 32.04474274 357.75370697 32.048172 356.79423523 C32.05320604 354.83865855 32.05558142 352.88307339 32.05541992 350.92749023 C32.05761837 347.93882248 32.07584395 344.95051727 32.09472656 341.96191406 C32.09765885 340.05501428 32.09964475 338.14811275 32.10058594 336.24121094 C32.10777145 335.35154129 32.11495697 334.46187164 32.12236023 333.54524231 C32.10626146 329.17762872 32.08862728 325.52407536 29.87011719 321.62792969 C27.68523152 319.76704937 25.60397128 318.16519761 23.24511719 316.56542969 C22.6534375 316.14455078 22.06175781 315.72367187 21.45214844 315.29003906 C17.11695338 312.27038376 12.63514398 309.90525485 7.87011719 307.62792969 Z M42.87011719 329.62792969 C42.8252417 330.49256836 42.78036621 331.35720703 42.73413086 332.24804688 C40.88129139 366.99743975 37.44355833 400.4675451 17.24121094 430.02636719 C15.68884681 432.45491788 15.68884681 432.45491788 15.93261719 434.77636719 C20.62532181 444.04445882 36.30757391 449.59028226 45.58105469 452.98730469 C53.34772637 455.43993785 60.61221147 456.78090619 68.76855469 456.86621094 C69.89748642 456.87831856 69.89748642 456.87831856 71.04922485 456.89067078 C72.6410293 456.90444974 74.23286253 456.91519933 75.82470703 456.9230957 C77.42050101 456.93452412 79.0162596 456.95482795 80.61181641 456.98461914 C107.69090895 457.48858645 134.56666807 447.01946822 154.29101562 428.21875 C163.7862542 418.65304584 170.790661 407.58441119 176.87011719 395.62792969 C177.37285156 394.65082031 177.87558594 393.67371094 178.39355469 392.66699219 C186.22333976 376.48543637 188.5919536 358.4733299 187.87011719 340.62792969 C182.16467156 341.64819761 176.6288249 342.96401426 171.05761719 344.56542969 C126.74705027 356.66712652 84.24535371 346.81909136 42.87011719 329.62792969 Z M-49.75488281 337.56542969 C-58.73909237 341.76411079 -67.33436845 344.96122701 -77.12988281 346.62792969 C-78.54188965 346.8873938 -78.54188965 346.8873938 -79.98242188 347.15209961 C-89.7149055 348.76487437 -99.29538105 348.9673739 -109.14160156 348.94360352 C-111.86206459 348.94045034 -114.5814287 348.96396955 -117.30175781 348.98925781 C-132.99370323 349.04762884 -147.72961305 347.05045564 -162.75488281 342.44042969 C-164.13546875 342.03147461 -164.13546875 342.03147461 -165.54394531 341.61425781 C-167.74230359 340.9616202 -169.93733601 340.2997761 -172.12988281 339.62792969 C-171.55344742 368.85320425 -164.87622177 397.13317096 -145.12988281 419.62792969 C-144.49824219 420.45164062 -143.86660156 421.27535156 -143.21582031 422.12402344 C-139.45705378 426.63595105 -134.73416971 430.01850847 -130.12988281 433.62792969 C-129.30617187 434.30210937 -128.48246094 434.97628906 -127.63378906 435.67089844 C-122.07348899 440.0167804 -116.20542578 443.306392 -109.87988281 446.37792969 C-109.14253906 446.74273437 -108.40519531 447.10753906 -107.64550781 447.48339844 C-95.76722866 453.03608715 -83.03004055 455.35557721 -70.06738281 456.62792969 C-69.40134033 456.6934201 -68.73529785 456.75891052 -68.04907227 456.8263855 C-43.14724401 459.15768831 -20.59355886 452.48978668 -1.12988281 436.62792969 C-1.61177945 430.95225823 -3.90532922 427.14991686 -6.75488281 422.37792969 C-23.57136993 393.07100129 -25.28853102 362.69715923 -26.12988281 329.62792969 C-34.50259995 329.62792969 -42.37996282 334.00693867 -49.75488281 337.56542969 Z " fill="#0E0E0E" transform="translate(295.1298828125,64.3720703125)"/>
</svg>
