<?xml version="1.0" encoding="UTF-8"?>
<svg version="1.1" xmlns="http://www.w3.org/2000/svg" width="265" height="448">
<path d="M0 0 C87.45 0 174.9 0 265 0 C265 147.84 265 295.68 265 448 C177.55 448 90.1 448 0 448 C0 300.16 0 152.32 0 0 Z " fill="#C18817" transform="translate(0,0)"/>
<path d="M0 0 C39.6 0 79.2 0 120 0 C120 0.33 120 0.66 120 1 C118.07800781 1.34611328 118.07800781 1.34611328 116.1171875 1.69921875 C83.11085127 7.83166601 54.34382312 23.92449135 34 51 C33.28457031 51.9384375 32.56914063 52.876875 31.83203125 53.84375 C16.86190445 74.40449053 6.59494916 98.77593527 3 124 C2.81824219 125.25296875 2.63648438 126.5059375 2.44921875 127.796875 C-2.27654776 172.3427276 6.8280962 217.40013443 35 253 C37.87910121 256.46094048 40.88629874 259.74977896 44 263 C44.79535156 263.87011719 45.59070312 264.74023438 46.41015625 265.63671875 C61.86707013 281.97954926 82.15999902 293.61479428 104 299 C105.10730469 299.29648437 106.21460937 299.59296875 107.35546875 299.8984375 C137.11056139 306.97216727 169.05350515 300.01998629 195 284.5625 C224.32302431 266.44170305 245.1088711 237.525427 255.39599609 204.89013672 C255.94650908 203.16739157 256.54314054 201.45955704 257.14453125 199.75390625 C265.9768775 173.78614666 266.31953627 140.61544852 260 114 C259.83371094 113.23703613 259.66742188 112.47407227 259.49609375 111.68798828 C254.09846818 87.09380733 242.32505616 64.11661002 226 45 C224.85724609 43.62908203 224.85724609 43.62908203 223.69140625 42.23046875 C203.87814743 19.23861226 174.88445021 4.85791554 145 1 C145 0.67 145 0.34 145 0 C184.6 0 224.2 0 265 0 C265 147.84 265 295.68 265 448 C177.55 448 90.1 448 0 448 C0 300.16 0 152.32 0 0 Z " fill="#FCFDFD" transform="translate(0,0)"/>
<path d="M0 0 C9.30224704 7.19567232 17.21632242 15.25775081 24.3515625 24.6328125 C25.34929687 25.90705078 25.34929687 25.90705078 26.3671875 27.20703125 C38.54833997 43.24874583 47.58356335 61.88070471 52.7265625 81.3203125 C52.96528076 82.22144775 53.20399902 83.12258301 53.44995117 84.05102539 C56.89470577 97.92348195 57.73206544 111.60606107 57.6640625 125.8203125 C57.66190735 126.63329803 57.6597522 127.44628357 57.65753174 128.28390503 C57.47559242 171.1085283 42.33815807 210.66767705 12.1015625 241.4453125 C-1.00022645 254.40376864 -16.91186634 265.14811896 -34.6484375 270.6328125 C-32.21174146 237.06590283 -27.12459708 210.81696798 -1 187.64453125 C0.41863411 186.43091569 1.85650674 185.23863666 3.328125 184.08984375 C11.06121112 178.00898088 15.57868858 169.24442648 17.3515625 159.6328125 C18.50669331 149.82133106 16.18048305 141.18418838 10.3515625 133.1953125 C8.17625479 130.50654383 5.89613572 127.98164931 3.3515625 125.6328125 C4.49399715 122.58632011 5.68166759 120.12794589 7.4765625 117.3828125 C11.2022953 109.95946563 10.43993497 100.06655104 8.50390625 92.1796875 C3.9603038 80.16609459 -4.23777758 73.0759099 -15.6484375 67.6328125 C-23.15579421 64.55681487 -30.68376848 63.00346824 -38.6484375 61.6328125 C-38.8343042 60.57594238 -39.0201709 59.51907227 -39.21166992 58.43017578 C-39.92043568 54.41392282 -40.64091477 50.3998372 -41.36450195 46.38623047 C-41.67291377 44.66672678 -41.97837277 42.94669019 -42.28051758 41.22607422 C-44.28295717 29.83782374 -46.81005224 18.77368402 -50.06419373 7.67814636 C-51.05718694 4.20185317 -51.9475918 0.699556 -52.8359375 -2.8046875 C-53.79709056 -6.59612955 -54.47292663 -9.1039212 -56.6484375 -12.3671875 C-59.76601313 -4.83867668 -61.57967293 2.97782273 -63.4609375 10.8828125 C-63.81117618 12.33911656 -64.16143687 13.79541532 -64.51171875 15.25170898 C-67.79915262 28.99393061 -70.78316402 42.79664452 -73.6484375 56.6328125 C-76.00462965 53.09852427 -76.25364661 50.10736154 -76.7734375 46.0078125 C-78.1320865 36.44836964 -80.30253044 27.12894025 -82.5859375 17.7578125 C-82.75506653 17.05742859 -82.92419556 16.35704468 -83.09844971 15.63543701 C-85.09401595 7.39707076 -87.2870245 -0.73302454 -89.91625977 -8.79736328 C-90.6484375 -11.3671875 -90.6484375 -11.3671875 -90.6484375 -14.3671875 C-91.3084375 -14.3671875 -91.9684375 -14.3671875 -92.6484375 -14.3671875 C-92.7309375 -13.4596875 -92.8134375 -12.5521875 -92.8984375 -11.6171875 C-93.36093569 -8.34548576 -94.27984268 -5.46825336 -95.41015625 -2.3671875 C-98.13091299 5.66691786 -99.85513501 13.89369556 -101.63061523 22.17626953 C-102.20715019 24.86514899 -102.79312156 27.55183067 -103.38085938 30.23828125 C-105.65128237 40.67222897 -107.75103382 51.12440011 -109.6484375 61.6328125 C-110.78539063 61.84035156 -111.92234375 62.04789062 -113.09375 62.26171875 C-127.54504439 65.07370109 -142.44351731 69.48776792 -151.390625 82.0859375 C-157.18264943 91.34209137 -159.39720801 100.74632221 -157.6484375 111.6328125 C-156.28540574 115.07427943 -154.73258642 118.05003333 -152.765625 121.1796875 C-151.6484375 123.6328125 -151.6484375 123.6328125 -152.29296875 125.73828125 C-153.63141354 127.6090182 -155.00387077 129.4153075 -156.4609375 131.1953125 C-163.89697303 141.15265737 -166.11731061 150.40838917 -164.6484375 162.6328125 C-161.54322239 175.33596524 -152.60649398 183.04771753 -143.0234375 191.1953125 C-121.66114897 209.39340059 -116.92969144 233.34361129 -113.93164062 260.12255859 C-113.53591295 263.63020682 -113.09284658 267.13103355 -112.6484375 270.6328125 C-130.11463902 268.14736862 -146.38050717 254.39922367 -158.6484375 242.6328125 C-160.06382812 241.32957031 -160.06382812 241.32957031 -161.5078125 240 C-187.86292368 215.24907558 -204.59900352 176.52972886 -205.79492188 140.50830078 C-206.68535484 108.91238821 -203.67895329 80.39389608 -189.6484375 51.6328125 C-189.33648437 50.98973145 -189.02453125 50.34665039 -188.703125 49.68408203 C-184.23317705 40.59655065 -179.07195966 32.50289161 -172.6484375 24.6328125 C-172.1838916 24.06143555 -171.7193457 23.49005859 -171.24072266 22.90136719 C-152.28047741 -0.27157039 -127.38993796 -17.62707791 -97.6484375 -23.3671875 C-96.41697998 -23.6288269 -96.41697998 -23.6288269 -95.16064453 -23.89575195 C-61.22450383 -30.74443877 -27.25907617 -20.44430712 0 0 Z " fill="#014B85" transform="translate(206.6484375,25.3671875)"/>
<path d="M0 0 C87.45 0 174.9 0 265 0 C265 27.72 265 55.44 265 84 C177.55 84 90.1 84 0 84 C0 56.28 0 28.56 0 0 Z " fill="#F4EDDE" transform="translate(0,364)"/>
<path d="M0 0 C87.45 0 174.9 0 265 0 C265 11.55 265 23.1 265 35 C177.55 35 90.1 35 0 35 C0 23.45 0 11.9 0 0 Z " fill="#FBFCFD" transform="translate(0,413)"/>
<path d="M0 0 C39.6 0 79.2 0 120 0 C120 53.13 120 106.26 120 161 C119.67 161 119.34 161 119 161 C118.98541748 160.25129639 118.97083496 159.50259277 118.95581055 158.73120117 C118.62849203 143.62712852 118.17998304 128.80325779 115 114 C114.7527417 112.83597656 114.7527417 112.83597656 114.50048828 111.6484375 C109.09239587 87.07438575 97.31262815 64.10205684 81 45 C80.23816406 44.08605469 79.47632813 43.17210937 78.69140625 42.23046875 C58.87814743 19.23861226 29.88445021 4.85791554 0 1 C0 0.67 0 0.34 0 0 Z " fill="#FCFDFE" transform="translate(145,0)"/>
<path d="M0 0 C39.6 0 79.2 0 120 0 C120 0.33 120 0.66 120 1 C118.07800781 1.34611328 118.07800781 1.34611328 116.1171875 1.69921875 C83.11085127 7.83166601 54.34382312 23.92449135 34 51 C33.28457031 51.9384375 32.56914063 52.876875 31.83203125 53.84375 C13.32335729 79.26451282 4.72266637 108.12376718 1 139 C0.67 139 0.34 139 0 139 C0 93.13 0 47.26 0 0 Z " fill="#FDFEFE" transform="translate(0,0)"/>
<path d="M0 0 C2.20882032 2.20882032 2.4555038 3.12311515 3.1484375 6.0859375 C3.34695312 6.92302246 3.54546875 7.76010742 3.75 8.62255859 C3.95625 9.53086426 4.1625 10.43916992 4.375 11.375 C4.59414062 12.3232666 4.81328125 13.2715332 5.0390625 14.24853516 C5.70534273 17.16302695 6.35644557 20.08041144 7 23 C7.17821289 23.80824219 7.35642578 24.61648437 7.54003906 25.44921875 C12.43604427 48.02258131 15.83132589 70.852763 18.25 93.8125 C18.33290283 94.59139587 18.41580566 95.37029175 18.5012207 96.17279053 C19.47081894 105.38178118 20.22374144 114.57753741 20.66229248 123.82795715 C20.8305955 127.32065109 21.06136833 130.78462543 21.43505859 134.26196289 C22.00822792 139.84350507 22.20990552 143.44440719 18.67578125 147.98828125 C16.14527316 150.41410777 13.40120897 152.54548945 10.625 154.68066406 C3.96030989 160.09171956 -1.45097065 167.15440294 -5.94140625 174.41796875 C-6.29074219 174.94003906 -6.64007813 175.46210938 -7 176 C-7.33 176 -7.66 176 -8 176 C-8.02187378 174.51234131 -8.02187378 174.51234131 -8.04418945 172.99462891 C-8.35560937 153.14782882 -9.00024733 133.36230124 -10.4375 113.5625 C-10.49894196 112.70142639 -10.56038391 111.84035278 -10.62368774 110.95318604 C-11.25142713 102.26052974 -12.01135842 93.61267733 -13.09765625 84.96484375 C-14.47872678 73.70065577 -13.92819542 63.67558677 -12 52.5 C-11.78504883 51.23003174 -11.57009766 49.96006348 -11.34863281 48.65161133 C-9.48900333 37.92284731 -7.17886929 27.30012709 -4.75 16.6875 C-4.48268066 15.51646729 -4.48268066 15.51646729 -4.20996094 14.32177734 C-1.19722222 1.19722222 -1.19722222 1.19722222 0 0 Z " fill="#034B83" transform="translate(150,31)"/>
<path d="M0 0 C0.66 0 1.32 0 2 0 C17.1738593 66.26050523 17.1738593 66.26050523 13.21337891 96.65942383 C9.885532 122.91352198 9.59372796 149.5718654 9 176 C6.51943008 173.59183032 4.6826415 171.12284547 2.75 168.25 C-3.36962835 159.70539742 -11.22266406 150.85155729 -20 145 C-20.328125 142.7331543 -20.328125 142.7331543 -20.25 139.82421875 C-20.20709839 138.15238525 -20.20709839 138.15238525 -20.16333008 136.44677734 C-20.10943115 135.20621582 -20.05553223 133.9656543 -20 132.6875 C-19.94803467 131.3773291 -19.89606934 130.0671582 -19.8425293 128.71728516 C-18.12998343 91.09888208 -13.0874785 52.57522338 -4 16 C-3.62237041 14.46094374 -3.2447672 12.921881 -2.8671875 11.3828125 C-1.92919332 7.58389559 -0.97089789 3.79063325 0 0 Z " fill="#034B83" transform="translate(114,31)"/>
<path d="M0 0 C1.17044324 98.0171188 1.17044324 98.0171188 -8 116 C-10.765625 117.20703125 -10.765625 117.20703125 -14.25 117.8125 C-15.49523437 118.03164063 -16.74046875 118.25078125 -18.0234375 118.4765625 C-23.99049591 119.31886644 -29.98068433 119.73471101 -36 120 C-36.05606788 118.27124037 -36.09367867 116.54188499 -36.125 114.8125 C-36.14820313 113.84957031 -36.17140625 112.88664062 -36.1953125 111.89453125 C-36.02997111 108.59762384 -35.63415789 105.5817974 -35.08984375 102.3359375 C-33.62076496 93.20954601 -33.07324838 84.02623245 -32.4375 74.8125 C-32.31099915 73.04879563 -32.18404809 71.28512349 -32.05664062 69.52148438 C-31.93199492 67.77085444 -31.80764436 66.02020346 -31.68359375 64.26953125 C-31.62211151 63.41167526 -31.56062927 62.55381927 -31.49728394 61.66996765 C-31.20240287 57.43050683 -30.95680589 53.19780968 -30.81103516 48.95043945 C-30.76379051 47.74051582 -30.76379051 47.74051582 -30.71559143 46.50614929 C-30.65994885 45.00278091 -30.61696105 43.49886046 -30.58995056 41.9947052 C-29.96930601 25.98127031 -14.8954274 12.6894945 -4.28515625 2.01953125 C-2 0 -2 0 0 0 Z " fill="#044C83" transform="translate(172,183)"/>
<path d="M0 0 C1.11890525 0.95756328 2.23759797 1.91537491 3.35620117 2.87329102 C3.97919601 3.40664566 4.60219086 3.94000031 5.24406433 4.48951721 C14.85082332 12.7533986 27.63479693 26.25404472 29.4765625 39.40209961 C29.52554688 40.63968018 29.57453125 41.87726074 29.625 43.15234375 C29.6569899 43.83726898 29.6889798 44.52219421 29.72193909 45.22787476 C29.79002163 46.69941217 29.85244419 48.17122051 29.90969849 49.64321899 C30.06377957 53.5579407 30.26428123 57.47023729 30.46484375 61.3828125 C30.50512192 62.18078751 30.54540009 62.97876251 30.5868988 63.80091858 C31.01861852 71.99387661 31.74809888 80.149811 32.5625 88.3125 C32.68947266 89.60341553 32.81644531 90.89433105 32.94726562 92.22436523 C33.59932989 98.72224201 33.59932989 98.72224201 34.53662109 105.18286133 C35.04832902 108.29381907 35.09750374 111.22466296 35.0625 114.375 C35.05347656 115.43460937 35.04445312 116.49421875 35.03515625 117.5859375 C35.02355469 118.38257813 35.01195312 119.17921875 35 120 C24.99091728 120.65633329 15.68981865 118.22845932 6 116 C5.87882812 114.83984375 5.75765625 113.6796875 5.6328125 112.484375 C5.46372557 110.90623029 5.29444412 109.3281064 5.125 107.75 C5.04636719 106.99203125 4.96773438 106.2340625 4.88671875 105.453125 C4.41124505 101.06413702 3.79767293 96.73144516 3.03027344 92.38354492 C-0.37428671 72.08691261 -0.27319812 51.52110129 -0.1373291 31.00610352 C-0.11638302 27.49172501 -0.10763436 23.97731435 -0.09765625 20.46289062 C-0.07659405 13.64185294 -0.04274504 6.8209356 0 0 Z " fill="#024B84" transform="translate(94,183)"/>
<path d="M0 0 C6.27743414 2.32497561 9.52820132 8.37590686 12.21875 14.13671875 C13.20735912 16.4945515 13.75643318 18.44254842 14 21 C14.07476562 21.69480469 14.14953125 22.38960937 14.2265625 23.10546875 C14.79133818 32.45399243 11.38314933 40.59145531 5.375 47.6875 C1.47125033 51.76769034 -2.86778387 55.24032449 -7.265625 58.76953125 C-16.25371275 66.10124283 -21.69678951 73.84153413 -27 84 C-27.33 84 -27.66 84 -28 84 C-28.14804816 76.08829366 -28.23013822 68.17969113 -28.23059464 60.26673317 C-28.2328249 56.59114648 -28.25682427 52.91851842 -28.33251953 49.24365234 C-28.40489972 45.68927565 -28.41755377 42.1390194 -28.39070892 38.58405685 C-28.39062685 36.58424433 -28.45064082 34.5847162 -28.51202393 32.58584595 C-28.42408853 26.87880139 -28.20736186 23.38688557 -24.37393188 18.98345947 C-21.43854585 16.37979326 -18.26139892 14.17891522 -15 12 C-13.67641252 10.97966098 -12.35956692 9.95040766 -11.0546875 8.90625 C-9.44034121 7.68458254 -7.8259738 6.46294264 -6.2109375 5.2421875 C-4.01915334 3.5768613 -1.94945646 1.94945646 0 0 Z " fill="#024B84" transform="translate(205,155)"/>
<path d="M0 0 C3.97669507 1.70569029 7.15931173 4.37139001 10.5 7.0625 C11.63412603 7.97166441 12.76959998 8.87914934 13.90625 9.78515625 C14.49013489 10.26562408 15.07401978 10.74609192 15.67559814 11.24111938 C18.044881 13.10035624 18.044881 13.10035624 20.98358154 14.78268433 C29.36433191 20.09906344 29.36433191 20.09906344 31.05664062 25.15983582 C31.38704988 28.90156555 31.35231271 32.47074009 31.171875 36.22265625 C31.14944758 37.57735111 31.13238766 38.93214439 31.12042236 40.28697205 C31.07494477 43.82588119 30.95743642 47.35872598 30.82397461 50.89526367 C30.70043431 54.51462744 30.64624962 58.13498784 30.5859375 61.75585938 C30.45785926 68.83969721 30.25352183 75.91944958 30 83 C27.70962213 79.99178419 25.70853908 76.92275029 23.75 73.6875 C18.57341805 65.54516797 12.09506777 60.22641112 4.6484375 54.1875 C-2.51075347 48.27430392 -9.28443005 41.53094414 -11 32 C-11.99922129 18.84631644 -9.30239159 11.01396154 -1 1 C-0.67 0.67 -0.34 0.34 0 0 Z " fill="#044C83" transform="translate(58,155)"/>
<path d="M0 0 C13.72389982 0.69782541 25.01340369 6.38194128 34.3125 16.375 C40.36272567 24.04311331 41.86393045 31.43269299 41.47265625 41.08984375 C40.82244957 46.46882631 39.00449683 50.53617614 36 55 C35.32195312 54.7215625 34.64390625 54.443125 33.9453125 54.15625 C24.47955943 50.44025145 15.0891945 47.40535558 5 46 C3.68644046 37.22233152 2.50759184 28.42762478 1.375 19.625 C1.23989014 18.60341797 1.10478027 17.58183594 0.96557617 16.52929688 C0.25935328 10.96671295 -0.14719671 5.60685663 0 0 Z " fill="#034B83" transform="translate(170,92)"/>
<path d="M0 0 C-1.78444717 15.36766664 -3.73097064 30.69612111 -6 46 C-6.71542969 46.08636719 -7.43085937 46.17273438 -8.16796875 46.26171875 C-16.3175553 47.41088425 -23.42970297 49.82962057 -31 53 C-32.66572979 53.6690041 -34.33206531 54.33651217 -36 55 C-36.81642254 53.73168307 -37.62799105 52.46024069 -38.4375 51.1875 C-38.88996094 50.47980469 -39.34242187 49.77210938 -39.80859375 49.04296875 C-43.41522163 42.85848881 -43.06990338 34.13288392 -41.31640625 27.359375 C-36.19775034 15.21053192 -27.49764904 8.1418596 -15.609375 3.03515625 C-10.26201373 0.91382281 -5.80997714 -0.08913494 0 0 Z " fill="#034B83" transform="translate(96,92)"/>
<path d="M0 0 C3.61346375 1.80673188 5.7074093 3.36824279 8.625 6.0625 C9.92824219 7.25552734 9.92824219 7.25552734 11.2578125 8.47265625 C12.16273438 9.30667969 13.06765625 10.14070313 14 11 C15.83044669 12.66983646 17.66365907 14.3366477 19.5 16 C20.3146875 16.7425 21.129375 17.485 21.96875 18.25 C23.88266431 20.0434104 23.88266431 20.0434104 26 21 C25.505 11.1 25.505 11.1 25 1 C26.32 1 27.64 1 29 1 C29 9.91 29 18.82 29 28 C18.44 28 7.88 28 -3 28 C-2.01 27.67 -1.02 27.34 0 27 C0 18.09 0 9.18 0 0 Z " fill="#276798" transform="translate(172,420)"/>
<path d="M0 0 C3.3 0 6.6 0 10 0 C9.34 0.66 8.68 1.32 8 2 C7.75746187 4.21072977 7.75746187 4.21072977 7.875 6.625 C7.89304687 7.44226563 7.91109375 8.25953125 7.9296875 9.1015625 C7.95289063 9.72804688 7.97609375 10.35453125 8 11 C9.67257355 9.5484451 11.33791758 8.08855591 13 6.625 C13.928125 5.81289063 14.85625 5.00078125 15.8125 4.1640625 C16.8953125 3.09285156 16.8953125 3.09285156 18 2 C18 1.34 18 0.68 18 0 C20.97 0 23.94 0 27 0 C26.01 0.66 25.02 1.32 24 2 C22.14066805 3.32612085 20.28703866 4.66025429 18.4375 6 C17.46683594 6.70125 16.49617188 7.4025 15.49609375 8.125 C12.99100543 9.91520916 12.99100543 9.91520916 11 12 C12.72436166 13.60960555 14.45413328 15.21264034 16.1875 16.8125 C17.15042969 17.70582031 18.11335938 18.59914063 19.10546875 19.51953125 C23.50033614 23.28571316 26.25789263 24.85157853 32 26 C32 17.42 32 8.84 32 0 C35.90200098 0.97550024 36.75099856 1.36878151 39.4609375 3.984375 C40.09773438 4.59023438 40.73453125 5.19609375 41.390625 5.8203125 C42.04546875 6.45710938 42.7003125 7.09390625 43.375 7.75 C44.67302355 8.99630946 45.97248359 10.24112469 47.2734375 11.484375 C47.89702148 12.08056641 48.52060547 12.67675781 49.16308594 13.29101562 C51.68943513 15.64142024 54.32055591 17.82658095 57 20 C57.08069658 17.04112541 57.14034665 14.0844341 57.1875 11.125 C57.21263672 10.28324219 57.23777344 9.44148438 57.26367188 8.57421875 C57.27817383 7.36572266 57.27817383 7.36572266 57.29296875 6.1328125 C57.31653442 5.01737061 57.31653442 5.01737061 57.34057617 3.87939453 C57.22818604 3.25919434 57.1157959 2.63899414 57 2 C56.01 1.34 55.02 0.68 54 0 C56.97 0 59.94 0 63 0 C62.34 0.33 61.68 0.66 61 1 C61 9.58 61 18.16 61 27 C56.32926223 25.13170489 53.69253569 23.18669159 50.1875 19.8125 C49.13478761 18.82220074 48.08140007 17.83261869 47.02734375 16.84375 C46.5154248 16.36035156 46.00350586 15.87695312 45.47607422 15.37890625 C42.3938231 12.49955555 39.18955989 9.75887772 36 7 C35.91930342 9.95887459 35.85965335 12.9155659 35.8125 15.875 C35.78736328 16.71675781 35.76222656 17.55851562 35.73632812 18.42578125 C35.72182617 19.63427734 35.72182617 19.63427734 35.70703125 20.8671875 C35.68346558 21.98262939 35.68346558 21.98262939 35.65942383 23.12060547 C35.77181396 23.74080566 35.8842041 24.36100586 36 25 C36.99 25.66 37.98 26.32 39 27 C22.49890613 28.37828162 22.49890613 28.37828162 16.25 23.25 C14.81280521 21.85416333 13.39552588 20.43749658 12 19 C10.34891662 17.64741757 8.68604239 16.30874619 7 15 C7.33 18.96 7.66 22.92 8 27 C6.02 27 4.04 27 2 27 C2.01047363 26.25314941 2.02094727 25.50629883 2.03173828 24.73681641 C2.0732077 21.36624492 2.09929729 17.995727 2.125 14.625 C2.14175781 13.449375 2.15851562 12.27375 2.17578125 11.0625 C2.18222656 9.94101562 2.18867187 8.81953125 2.1953125 7.6640625 C2.20578613 6.62717285 2.21625977 5.5902832 2.22705078 4.52197266 C2.25615026 1.82891377 2.25615026 1.82891377 0 0 Z " fill="#1B5E92" transform="translate(55,375)"/>
<path d="M0 0 C2.56364483 -0.10845031 5.12266279 -0.18749744 7.6875 -0.25 C8.40873047 -0.28351563 9.12996094 -0.31703125 9.87304688 -0.3515625 C13.7225424 -0.42187292 15.60067342 -0.23959595 18.98828125 1.79296875 C21 4 21 4 21.5 7.5625 C21 11 21 11 19.5 12.9375 C19.005 13.288125 18.51 13.63875 18 14 C21.09642272 20.96695112 25.19924279 24.04530209 32 27 C32 27.33 32 27.66 32 28 C21.77 28 11.54 28 1 28 C1.33 27.34 1.66 26.68 2 26 C2.24196261 22.00497356 2.18519497 18.0015367 2.1875 14 C2.19974609 12.88109375 2.21199219 11.7621875 2.22460938 10.609375 C2.22654297 9.54203125 2.22847656 8.4746875 2.23046875 7.375 C2.23457764 6.39273437 2.23868652 5.41046875 2.24291992 4.3984375 C2.23660261 1.81509956 2.23660261 1.81509956 0 0 Z " fill="#226395" transform="translate(96,420)"/>
<path d="M0 0 C3.10605182 2.6492795 4.82033521 4.80245545 5.4453125 8.92578125 C5.71838212 14.3416621 4.872121 17.66028484 1.125 21.8125 C-2.78149118 24.13527854 -6.39824921 24.28373693 -10.875 23.8125 C-15.21182792 21.5606855 -18.04427416 19.38931459 -19.875 14.8125 C-20.44264471 10.4842091 -20.33105578 6.94063797 -18.6875 2.875 C-14.04740082 -2.40511286 -6.21044631 -2.56518434 0 0 Z " fill="#F9FBFC" transform="translate(144.875,377.1875)"/>
<path d="M0 0 C0.33 0 0.66 0 1 0 C1.31801253 2.95782526 1.62937644 5.91613974 1.9375 8.875 C2.02451172 9.67808594 2.11152344 10.48117188 2.20117188 11.30859375 C3.92670967 28.05270124 4.21237217 44.79678685 4.24023438 61.61743164 C4.25008832 65.21978615 4.28129291 68.82160305 4.3125 72.42382812 C4.31901891 74.73437167 4.32427372 77.04491921 4.328125 79.35546875 C4.3404718 80.42218307 4.3528186 81.4888974 4.36553955 82.5879364 C4.34778241 88.51944611 3.80559047 92.74299014 1 98 C-2.97806871 92.03289693 -3.29641666 87.35448722 -3.265625 80.35546875 C-3.26830887 79.40519302 -3.27099274 78.4549173 -3.27375793 77.47584534 C-3.27770273 74.37959343 -3.26503855 71.28371409 -3.25 68.1875 C-3.2478952 67.13510132 -3.24579041 66.08270264 -3.24362183 64.99841309 C-3.19243319 43.22396995 -2.04506404 21.67822926 0 0 Z " fill="#044C83" transform="translate(132,131)"/>
<path d="M0 0 C4.11049192 1.55112903 7.00696467 3.01392934 9 7 C10.24740866 11.6551845 10.63294241 15.56787866 8.375 19.9375 C4.98666667 24.30666667 4.98666667 24.30666667 1 25 C-3.3519156 25.24055815 -7.21515734 25.12300751 -10.98046875 22.75390625 C-14.45189779 19.3154599 -15.43201204 16.2227203 -15.6875 11.375 C-15.47082037 7.33031358 -15.16011073 6.21067202 -12.625 2.875 C-8.40978315 -0.13586918 -5.11323573 -0.53322384 0 0 Z " fill="#FAFBFC" transform="translate(149,421)"/>
<path d="M0 0 C3 2.5 3 2.5 5 5 C5.33 5.33 5.66 5.66 6 6 C6.5100063 11.45121486 6.93655177 16.35296068 4.1875 21.1875 C0.46940783 24.26820494 -3.07629221 24.33799423 -7.7109375 24.28515625 C-11.26644424 23.84223476 -13.34838108 22.32825076 -16 20 C-18.90887894 15.37588555 -18.77419564 10.27860665 -18 5 C-13.33478729 -1.47946209 -7.36581346 -1.96946884 0 0 Z " fill="#FAFBFC" transform="translate(201,377)"/>
<path d="M0 0 C9.22863363 -0.93744585 16.80590998 1.90295499 25 6 C23.62642659 9.18646613 22.15184584 10.97612262 19.4453125 13.12890625 C18.74792969 13.68900391 18.05054688 14.24910156 17.33203125 14.82617188 C16.60371094 15.39916016 15.87539062 15.97214844 15.125 16.5625 C14.40441406 17.13935547 13.68382812 17.71621094 12.94140625 18.31054688 C10.96929163 19.88496988 8.99213334 21.4509916 7 23 C6.30245605 23.55679443 5.60491211 24.11358887 4.88623047 24.68725586 C3 26 3 26 1 26 C-0.16711095 17.33003296 -0.09744014 8.72630608 0 0 Z " fill="#064C83" transform="translate(176,144)"/>
<path d="M0 0 C-0.53160742 9.01470449 -1.10504464 18.01236323 -2 27 C-8.73570002 23.55730888 -14.23796966 18.86225383 -20 14 C-21.22861749 12.97850577 -22.45765383 11.9575146 -23.6875 10.9375 C-24.450625 10.298125 -25.21375 9.65875 -26 9 C-19.73429856 2.06226749 -8.95300753 -0.15196052 0 0 Z " fill="#074C82" transform="translate(90,143)"/>
<path d="M0 0 C2.56364483 -0.10845031 5.12266279 -0.18749744 7.6875 -0.25 C8.40873047 -0.28351563 9.12996094 -0.31703125 9.87304688 -0.3515625 C13.73779046 -0.42215142 15.61421144 -0.22977846 19.0234375 1.80078125 C21 4 21 4 20.9375 7.4375 C20.14844224 10.43591948 19.28103252 13.18172845 18 16 C18.93274109 17.12894876 19.87140122 18.25300876 20.8125 19.375 C21.33457031 20.00148438 21.85664063 20.62796875 22.39453125 21.2734375 C25.30902823 24.40776272 27.89096094 25.33366934 32 26 C32 26.33 32 26.66 32 27 C24.05459387 27.62316911 24.05459387 27.62316911 20.25 25.375 C18.5293719 23.55878145 17.07193116 21.78856918 15.5625 19.8125 C13.22852937 16.73985677 13.22852937 16.73985677 9.6875 16.125 C8.800625 16.08375 7.91375 16.0425 7 16 C7 19.3 7 22.6 7 26 C8.32 26.33 9.64 26.66 11 27 C8.03 27 5.06 27 2 27 C2.33 18.42 2.66 9.84 3 1 C2.01 0.67 1.02 0.34 0 0 Z " fill="#14598E" transform="translate(151,330)"/>
<path d="M0 0 C4.07863185 1.88518796 7.02294708 4.6175098 10.25 7.6875 C11.40420219 8.77032668 12.55914906 9.85236015 13.71484375 10.93359375 C14.27413574 11.45808105 14.83342773 11.98256836 15.40966797 12.52294922 C18.53775726 15.42822098 21.76798662 18.2115963 25 21 C25.33 14.73 25.66 8.46 26 2 C24.68 1.67 23.36 1.34 22 1 C22 0.67 22 0.34 22 0 C24.97 0 27.94 0 31 0 C30.67 0.66 30.34 1.32 30 2 C29.84621148 3.95774069 29.75028537 5.92017352 29.68359375 7.8828125 C29.62075195 9.63271484 29.62075195 9.63271484 29.55664062 11.41796875 C29.51732422 12.64128906 29.47800781 13.86460937 29.4375 15.125 C29.37272461 16.97158203 29.37272461 16.97158203 29.30664062 18.85546875 C29.20031296 21.90352853 29.09828219 24.9516719 29 28 C25.64516782 26.79783691 23.22849804 25.60757372 20.66015625 23.13671875 C20.07169922 22.57919922 19.48324219 22.02167969 18.87695312 21.44726562 C17.97879883 20.57618164 17.97879883 20.57618164 17.0625 19.6875 C15.86729806 18.54409446 14.67069735 17.40214913 13.47265625 16.26171875 C12.89660645 15.71306152 12.32055664 15.1644043 11.72705078 14.59912109 C9.23467833 12.29136883 6.6342817 10.1436216 4 8 C3.91930342 10.95887459 3.85965335 13.9155659 3.8125 16.875 C3.78736328 17.71675781 3.76222656 18.55851562 3.73632812 19.42578125 C3.72666016 20.23144531 3.71699219 21.03710938 3.70703125 21.8671875 C3.6913208 22.61081543 3.67561035 23.35444336 3.65942383 24.12060547 C3.77181396 24.74080566 3.8842041 25.36100586 4 26 C4.99 26.66 5.98 27.32 7 28 C3.7 28 0.4 28 -3 28 C-2.34 27.34 -1.68 26.68 -1 26 C-0.62792646 23.28384136 -0.62792646 23.28384136 -0.5859375 20.1171875 C-0.54726563 18.95058594 -0.50859375 17.78398437 -0.46875 16.58203125 C-0.4378125 15.35871094 -0.406875 14.13539063 -0.375 12.875 C-0.33632813 11.64394531 -0.29765625 10.41289062 -0.2578125 9.14453125 C-0.1633001 6.09650624 -0.07774506 3.04849138 0 0 Z " fill="#11578D" transform="translate(37,329)"/>
<path d="M0 0 C3.7281286 2.13397406 5.40487788 5.0232274 6.7265625 8.98828125 C7.11637527 13.12029665 7.00175155 15.44848734 5.1015625 19.17578125 C1.83730585 23.04134834 -1.47524789 25.38888471 -6.2734375 26.98828125 C-13.09114263 27.44279493 -18.14645214 26.60818791 -23.5859375 22.05078125 C-26.25535924 18.78815468 -27.17590169 16.86610353 -27.6484375 12.61328125 C-27.08317462 7.14907345 -24.71753797 4.29149387 -20.7109375 0.67578125 C-14.48310786 -3.63579312 -6.7361871 -2.83134557 0 0 Z M-21.2734375 3.98828125 C-23.28004629 8.00149884 -22.87823221 12.63495693 -22.2734375 16.98828125 C-20.8671882 20.18430239 -19.22542342 22.12141269 -16.2734375 23.98828125 C-11.49243995 25.47363971 -7.60029457 25.39840071 -2.8359375 23.92578125 C0.40786672 21.47314879 1.50126079 19.88041609 2.7265625 15.98828125 C2.92012165 11.41544632 2.32857027 7.9987943 -0.0234375 4.05078125 C-4.07846298 0.33367456 -7.75838298 -0.4651859 -13.2734375 -0.33984375 C-16.58082425 0.20277439 -18.74196435 1.88901084 -21.2734375 3.98828125 Z " fill="#175B90" transform="translate(156.2734375,421.01171875)"/>
<path d="M0 0 C3.16275829 1.43495515 5.17161885 2.91768058 7.484375 5.51953125 C8.81470778 9.17794638 9.15796413 12.4600105 8.484375 16.26953125 C6.22012053 20.63031764 3.55030808 23.52502642 -0.515625 26.26953125 C-5.77765297 27.91667866 -11.64806567 28.38763842 -16.83984375 26.36328125 C-21.29908349 23.791594 -23.90528267 21.30185103 -25.515625 16.26953125 C-26.04384409 12.04377851 -25.83177804 9.8896776 -23.890625 6.08203125 C-17.44137845 -1.5552344 -9.54138071 -2.7705562 0 0 Z M-18.515625 3.26953125 C-21.49357464 7.73645572 -21.12919748 12.03171736 -20.515625 17.26953125 C-18.46592222 21.44214048 -16.78081495 23.53850352 -12.515625 25.26953125 C-8.21281466 25.86222606 -4.55817078 25.73534958 -0.578125 23.95703125 C2.16043519 21.71639109 3.38642359 20.06908808 3.8203125 16.52734375 C3.9715839 10.08306727 3.9715839 10.08306727 1.796875 4.14453125 C-4.88957127 -1.27691167 -11.09856322 -0.58163545 -18.515625 3.26953125 Z " fill="#1B5E91" transform="translate(203.515625,375.73046875)"/>
<path d="M0 0 C3.82220212 2.73014437 7.13404751 5.24886735 8.0390625 10.08984375 C8.21144528 14.79902778 7.71185749 18.14948233 4.625 21.875 C-1.30203689 27.07922751 -5.14527706 27.21601388 -12.94140625 27.16015625 C-17.47164937 26.78392445 -19.15514787 26.0078291 -22.375 22.875 C-22.973125 22.2975 -23.57125 21.72 -24.1875 21.125 C-25.93546437 17.81306752 -26.4823658 14.57554127 -26.375 10.875 C-24.6176136 5.60284079 -21.74002143 3.05782813 -17.375 -0.125 C-11.73816637 -2.00394454 -5.61662826 -1.87220942 0 0 Z M-19.375 3.875 C-21.96517458 8.05844347 -22.04818047 12.08793889 -21.375 16.875 C-19.18113412 21.26273175 -16.92979418 23.96834197 -12.375 25.875 C-7.16864695 26.44296579 -3.7578363 25.76368756 0.625 22.875 C3.86449816 19.20356875 4.09027873 15.73794757 3.91015625 11.0234375 C3.35893338 6.87038846 1.61316906 4.71785008 -1.5 2.0625 C-7.68070861 -0.49040138 -13.82011965 0.08142317 -19.375 3.875 Z " fill="#155A8F" transform="translate(146.375,375.125)"/>
<path d="M0 0 C3.38179174 2.17434587 6.46038232 4.22642048 9.1875 7.1875 C13.09371454 11.24327681 17.43525905 14.68210342 21.83984375 18.1796875 C22.55269531 18.78039062 23.26554687 19.38109375 24 20 C24 20.33 24 20.66 24 21 C20.72918529 21.02902429 17.4584037 21.04680684 14.1875 21.0625 C13.25873047 21.07087891 12.32996094 21.07925781 11.37304688 21.08789062 C10.48037109 21.09111328 9.58769531 21.09433594 8.66796875 21.09765625 C7.43469849 21.10551147 7.43469849 21.10551147 6.17651367 21.11352539 C4 21 4 21 1 20 C-0.1482685 17.703463 -0.11561175 16.41686833 -0.09765625 13.8671875 C-0.09443359 13.06152344 -0.09121094 12.25585938 -0.08789062 11.42578125 C-0.07951172 10.58402344 -0.07113281 9.74226563 -0.0625 8.875 C-0.05798828 8.02550781 -0.05347656 7.17601562 -0.04882812 6.30078125 C-0.03702874 4.20049091 -0.01909306 2.1002367 0 0 Z " fill="#F7F9FB" transform="translate(175,427)"/>
<path d="M0 0 C0.66 0 1.32 0 2 0 C2.34780518 0.74685059 2.69561035 1.49370117 3.05395508 2.26318359 C4.63147614 5.63791714 6.22180034 9.00645955 7.8125 12.375 C8.35970703 13.550625 8.90691406 14.72625 9.47070312 15.9375 C10.00244141 17.05898438 10.53417969 18.18046875 11.08203125 19.3359375 C11.56905518 20.37282715 12.0560791 21.4097168 12.55786133 22.47802734 C13.89542318 25.25307444 13.89542318 25.25307444 17 27 C14.36 27 11.72 27 9 27 C7.68 24.03 6.36 21.06 5 18 C1.7 17.67 -1.6 17.34 -5 17 C-5.33 20.3 -5.66 23.6 -6 27 C-8.97 27 -11.94 27 -15 27 C-14.27296875 26.39671875 -13.5459375 25.7934375 -12.796875 25.171875 C-8.91363847 21.28863847 -7.26061826 16.26639102 -5.25 11.25 C-4.4653173 9.33781206 -3.67895114 7.42631377 -2.890625 5.515625 C-2.55063477 4.67290039 -2.21064453 3.83017578 -1.86035156 2.96191406 C-1 1 -1 1 0 0 Z " fill="#10568C" transform="translate(222,420)"/>
<path d="M0 0 C3.90200098 0.97550024 4.75099856 1.36878151 7.4609375 3.984375 C8.09773438 4.59023438 8.73453125 5.19609375 9.390625 5.8203125 C10.04546875 6.45710938 10.7003125 7.09390625 11.375 7.75 C12.67302355 8.99630946 13.97248359 10.24112469 15.2734375 11.484375 C16.20881348 12.37866211 16.20881348 12.37866211 17.16308594 13.29101562 C19.68943513 15.64142024 22.32055591 17.82658095 25 20 C25.08069658 17.04112541 25.14034665 14.0844341 25.1875 11.125 C25.21263672 10.28324219 25.23777344 9.44148438 25.26367188 8.57421875 C25.27333984 7.76855469 25.28300781 6.96289062 25.29296875 6.1328125 C25.3086792 5.38918457 25.32438965 4.64555664 25.34057617 3.87939453 C25.22818604 3.25919434 25.1157959 2.63899414 25 2 C24.01 1.34 23.02 0.68 22 0 C24.97 0 27.94 0 31 0 C30.01 0.495 30.01 0.495 29 1 C29 9.58 29 18.16 29 27 C24.32926223 25.13170489 21.69253569 23.18669159 18.1875 19.8125 C17.13478761 18.82220074 16.08140007 17.83261869 15.02734375 16.84375 C14.5154248 16.36035156 14.00350586 15.87695312 13.47607422 15.37890625 C10.39414926 12.49986024 7.19440301 9.75282377 4 7 C3.01 7.495 3.01 7.495 2 8 C1.67 13.61 1.34 19.22 1 25 C0.67 25 0.34 25 0 25 C0 16.75 0 8.5 0 0 Z " fill="#286798" transform="translate(87,375)"/>
<path d="M0 0 C0 2.31 0 4.62 0 7 C-0.226875 6.360625 -0.45375 5.72125 -0.6875 5.0625 C-1.81345498 2.83065562 -1.81345498 2.83065562 -4.0625 2.25 C-12.82706109 1.35249611 -12.82706109 1.35249611 -21 4 C-23.84174431 6.54777076 -24.00189552 8.01678888 -24.4375 11.875 C-24.25237713 16.19721648 -22.89261328 18.72677971 -20 22 C-14.82125972 25.6991002 -10.13037138 25.24852857 -4 25 C-4.33 21.37 -4.66 17.74 -5 14 C-3.02 14 -1.04 14 1 14 C0.67 17.96 0.34 21.92 0 26 C-6.19459107 28.60824887 -12.3642405 29.24448911 -18.76171875 27.0546875 C-22.43573234 25.34908703 -25.33438581 23.70476797 -28.125 20.75 C-29.86412549 15.28417704 -29.89352647 10.78705294 -27.3125 5.625 C-20.19072305 -2.45917924 -9.8815724 -2.02698921 0 0 Z " fill="#12578D" transform="translate(245,375)"/>
<path d="M0 0 C5.94 0 11.88 0 18 0 C17.67 1.32 17.34 2.64 17 4 C13.7 3.34 10.4 2.68 7 2 C7 5.3 7 8.6 7 12 C10.3 12 13.6 12 17 12 C17 13.65 17 15.3 17 17 C16.34 16.34 15.68 15.68 15 15 C12.67724823 14.59952556 10.34260643 14.2602896 8 14 C8 17.96 8 21.92 8 26 C9.44375 25.87625 10.8875 25.7525 12.375 25.625 C13.59316406 25.52058594 13.59316406 25.52058594 14.8359375 25.4140625 C17.20334191 25.17107412 17.20334191 25.17107412 19 23 C18.67 24.65 18.34 26.3 18 28 C12.39 28 6.78 28 1 28 C1.66 27.67 2.32 27.34 3 27 C3 18.75 3 10.5 3 2 C2.01 2 1.02 2 0 2 C0 1.34 0 0.68 0 0 Z " fill="#2D6B9A" transform="translate(125,329)"/>
<path d="M0 0 C1.98 0 3.96 0 6 0 C5.97381592 0.57967529 5.94763184 1.15935059 5.9206543 1.7565918 C5.81629388 4.39994875 5.75155673 7.04287199 5.6875 9.6875 C5.64560547 10.59951172 5.60371094 11.51152344 5.56054688 12.45117188 C5.47576381 17.11424044 5.46171581 19.27927721 8.328125 23.1171875 C11.56926355 25.40114771 13.11273718 25.57895404 17 25 C19.60865157 24.13044948 20.65967432 23.55645596 22.09716797 21.20605469 C23.09553707 18.7665568 23.23078246 17.07790182 23.1953125 14.453125 C23.18886719 13.60878906 23.18242187 12.76445312 23.17578125 11.89453125 C23.15902344 11.02183594 23.14226563 10.14914062 23.125 9.25 C23.11597656 8.36183594 23.10695313 7.47367187 23.09765625 6.55859375 C23.07414577 4.37211942 23.04128499 2.18619906 23 0 C24.32 0 25.64 0 27 0 C27.08138426 2.87557703 27.14067851 5.74882262 27.1875 8.625 C27.21263672 9.43324219 27.23777344 10.24148438 27.26367188 11.07421875 C27.32573891 16.16371533 26.81597514 19.58171455 24 24 C20.05740238 27.69618527 15.74548626 27.32210327 10.62109375 27.30078125 C6.737433 26.85511526 4.85563866 25.99269748 2.29296875 23.01953125 C0.4109737 18.62441894 0.42966004 14.42411295 0.3125 9.6875 C0.27833984 8.75615234 0.24417969 7.82480469 0.20898438 6.86523438 C0.12684059 4.57694328 0.05758338 2.28901896 0 0 Z " fill="#075088" transform="translate(3,330)"/>
<path d="M0 0 C5.94 0 11.88 0 18 0 C18 1.65 18 3.3 18 5 C17.34 4.34 16.68 3.68 16 3 C13.34462628 2.43479997 10.70855287 2.26211802 8 2 C8 5.3 8 8.6 8 12 C10.97 12 13.94 12 17 12 C16.67 13.32 16.34 14.64 16 16 C15.67 15.67 15.34 15.34 15 15 C12.67182036 14.63239269 10.3381615 14.29758419 8 14 C8.33 17.63 8.66 21.26 9 25 C13.0100934 25.17864631 13.0100934 25.17864631 17 25 C17.66 24.34 18.32 23.68 19 23 C18.67 24.65 18.34 26.3 18 28 C12.39 28 6.78 28 1 28 C1 27.34 1 26.68 1 26 C1.99 26 2.98 26 4 26 C3.91942739 22.04081323 3.80656055 18.08320163 3.6875 14.125 C3.66494141 12.99707031 3.64238281 11.86914062 3.61914062 10.70703125 C3.58369141 9.63066406 3.54824219 8.55429687 3.51171875 7.4453125 C3.48553467 6.45031738 3.45935059 5.45532227 3.43237305 4.43017578 C3.28968994 3.62821777 3.14700684 2.82625977 3 2 C2.01 1.34 1.02 0.68 0 0 Z " fill="#185C90" transform="translate(34,420)"/>
<path d="M0 0 C2.37625177 -0.10883596 4.74743976 -0.18766696 7.125 -0.25 C7.79015625 -0.28351563 8.4553125 -0.31703125 9.140625 -0.3515625 C14.25631945 -0.45187023 17.12136328 0.70345578 21 4 C21.6875 6.9375 21.6875 6.9375 21 10 C18.75 12.9375 18.75 12.9375 16 15 C13.6875 14.8125 13.6875 14.8125 12 14 C13.32 13.34 14.64 12.68 16 12 C16.16677282 8.58343976 16.16677282 8.58343976 16 5 C13.63333333 2.23333333 13.63333333 2.23333333 7 2 C7 9.92 7 17.84 7 26 C8.32 26.66 9.64 27.32 11 28 C7.7 28 4.4 28 1 28 C1.66 27.67 2.32 27.34 3 27 C2.89051894 22.8744331 2.75979775 18.74981122 2.625 14.625 C2.5940625 13.449375 2.563125 12.27375 2.53125 11.0625 C2.49257812 9.94101562 2.45390625 8.81953125 2.4140625 7.6640625 C2.3826416 6.62717285 2.3512207 5.5902832 2.31884766 4.52197266 C2.24045528 1.83190165 2.24045528 1.83190165 0 0 Z " fill="#226395" transform="translate(4,420)"/>
<path d="M0 0 C2.97 0 5.94 0 9 0 C7.94232422 1.13308594 7.94232422 1.13308594 6.86328125 2.2890625 C3.08784142 6.8195903 0.738769 12.09533785 -1.8125 17.375 C-2.56563477 18.90833984 -2.56563477 18.90833984 -3.33398438 20.47265625 C-4.56337695 22.9782754 -5.78510602 25.48732763 -7 28 C-10 27 -10 27 -11.33447266 24.82275391 C-11.7732373 23.88351074 -12.21200195 22.94426758 -12.6640625 21.9765625 C-13.14617187 20.955625 -13.62828125 19.9346875 -14.125 18.8828125 C-14.62 17.80773437 -15.115 16.73265625 -15.625 15.625 C-16.12773438 14.55765625 -16.63046875 13.4903125 -17.1484375 12.390625 C-20.80381405 4.58855784 -20.80381405 4.58855784 -22 1 C-20.02 1 -18.04 1 -16 1 C-15.76289307 1.57032959 -15.52578613 2.14065918 -15.28149414 2.72827148 C-14.21104366 5.29908382 -13.13682419 7.8683042 -12.0625 10.4375 C-11.68931641 11.33533203 -11.31613281 12.23316406 -10.93164062 13.15820312 C-10.57392578 14.01220703 -10.21621094 14.86621094 -9.84765625 15.74609375 C-9.51773682 16.53685303 -9.18781738 17.3276123 -8.84790039 18.14233398 C-8.14278509 19.97376797 -8.14278509 19.97376797 -7 21 C-5.63121452 18.25643874 -4.27986823 15.50644895 -2.9375 12.75 C-2.35258789 11.58404297 -2.35258789 11.58404297 -1.75585938 10.39453125 C-1.39169922 9.64042969 -1.02753906 8.88632812 -0.65234375 8.109375 C-0.31195068 7.41811523 0.02844238 6.72685547 0.37915039 6.01464844 C1.28759294 3.68415787 1.28759294 3.68415787 0 0 Z " fill="#0F558C" transform="translate(114,329)"/>
<path d="M0 0 C8.91 0 17.82 0 27 0 C27 1.65 27 3.3 27 5 C26.34 5 25.68 5 25 5 C24.67 4.34 24.34 3.68 24 3 C21.87423218 2.53348793 21.87423218 2.53348793 19.4375 2.375 C18.61121094 2.30023438 17.78492188 2.22546875 16.93359375 2.1484375 C16.29550781 2.09945313 15.65742188 2.05046875 15 2 C15.08057261 5.95918677 15.19343945 9.91679837 15.3125 13.875 C15.33505859 15.00292969 15.35761719 16.13085938 15.38085938 17.29296875 C15.41630859 18.36933594 15.45175781 19.44570313 15.48828125 20.5546875 C15.51446533 21.54968262 15.54064941 22.54467773 15.56762695 23.56982422 C15.78165161 24.77276123 15.78165161 24.77276123 16 26 C16.99 26.66 17.98 27.32 19 28 C15.37 28 11.74 28 8 28 C8.66 27.34 9.32 26.68 10 26 C10.37095708 23.57753405 10.37095708 23.57753405 10.4140625 20.7734375 C10.45273438 19.7421875 10.49140625 18.7109375 10.53125 17.6484375 C10.5621875 16.56820313 10.593125 15.48796875 10.625 14.375 C10.68300781 12.74304688 10.68300781 12.74304688 10.7421875 11.078125 C10.83665846 8.38570255 10.91942581 5.69287416 11 3 C7.37 3.33 3.74 3.66 0 4 C0 2.68 0 1.36 0 0 Z " fill="#306D9C" transform="translate(222,329)"/>
<path d="M0 0 C5.61 0 11.22 0 17 0 C17 1.65 17 3.3 17 5 C16.34 4.34 15.68 3.68 15 3 C12.34462628 2.43479997 9.70855287 2.26211802 7 2 C7 5.3 7 8.6 7 12 C10.3 11.67 13.6 11.34 17 11 C17 12.65 17 14.3 17 16 C16.34 16 15.68 16 15 16 C15 15.34 15 14.68 15 14 C12.36 14 9.72 14 7 14 C7.33 17.63 7.66 21.26 8 25 C9.918125 25.0309375 9.918125 25.0309375 11.875 25.0625 C12.59429687 25.07410156 13.31359375 25.08570313 14.0546875 25.09765625 C16.08185404 25.12649242 16.08185404 25.12649242 18 24 C18 24.99 18 25.98 18 27 C12.72 27 7.44 27 2 27 C2.02320313 25.21851563 2.04640625 23.43703125 2.0703125 21.6015625 C2.08906667 19.27604584 2.10726724 16.95052467 2.125 14.625 C2.14175781 13.449375 2.15851562 12.27375 2.17578125 11.0625 C2.18222656 9.94101562 2.18867187 8.81953125 2.1953125 7.6640625 C2.20578613 6.62717285 2.21625977 5.5902832 2.22705078 4.52197266 C2.25615026 1.82891377 2.25615026 1.82891377 0 0 Z " fill="#085088" transform="translate(32,375)"/>
<path d="M0 0 C0 1.98 0 3.96 0 6 C-0.33 5.01 -0.66 4.02 -1 3 C-3.97 3 -6.94 3 -10 3 C-11.08084521 6.63619656 -11.08084521 6.63619656 -11 9 C-10.46375 9.2475 -9.9275 9.495 -9.375 9.75 C-5.12641179 11.98609906 -1.68792483 13.96811275 1 18 C0.78358209 24.05970149 0.78358209 24.05970149 -1.5625 26.875 C-4.97899463 28.45184368 -8.2384088 29.03083271 -12 29 C-14.5 28.0625 -14.5 28.0625 -16 27 C-16 25.35 -16 23.7 -16 22 C-15.34 22 -14.68 22 -14 22 C-13.34 23.32 -12.68 24.64 -12 26 C-7.85906302 26.20970559 -7.85906302 26.20970559 -4 25 C-3.24241756 22.30197711 -3.24241756 22.30197711 -4 19 C-6.14240515 16.94848476 -8.3963853 15.29773396 -10.8359375 13.61328125 C-13.54642494 11.59264711 -14.83520965 9.91811764 -15.4375 6.5625 C-15 4 -15 4 -13.125 1.6875 C-8.7364953 -0.68229254 -4.88510148 -0.34148282 0 0 Z " fill="#175B90" transform="translate(199,329)"/>
<path d="M0 0 C0 1.65 0 3.3 0 5 C-0.8353125 4.2575 -0.8353125 4.2575 -1.6875 3.5 C-4.39516153 1.74367901 -5.83379087 1.65770712 -9 2 C-10.24406261 3.04437537 -10.24406261 3.04437537 -10.3359375 5.33203125 C-10.25604221 8.12887695 -10.25604221 8.12887695 -8.1015625 9.94921875 C-6.87566406 10.80966797 -6.87566406 10.80966797 -5.625 11.6875 C-1.00558659 14.99441341 -1.00558659 14.99441341 1 17 C1.375 19.875 1.375 19.875 1 23 C-0.8670991 25.30275556 -2.35647741 26.67823871 -5 28 C-6.49649362 28.12005453 -7.99874793 28.17531451 -9.5 28.1875 C-10.2940625 28.20167969 -11.088125 28.21585937 -11.90625 28.23046875 C-14 28 -14 28 -16 26 C-16.125 23.375 -16.125 23.375 -16 21 C-15.34 21 -14.68 21 -14 21 C-13.34 22.32 -12.68 23.64 -12 25 C-9.03 25 -6.06 25 -3 25 C-3 22.24516496 -3.03459622 20.53037411 -4 18 C-5.87150621 16.17884822 -7.81175845 14.79153873 -9.9921875 13.359375 C-11.93611545 12.04325258 -13.47328752 10.78038163 -15 9 C-15.56114721 5.8736084 -15.25613705 4.45128908 -13.6875 1.6875 C-9.40525166 -1.00135361 -4.92480563 -0.30567759 0 0 Z " fill="#165B8F" transform="translate(261,420)"/>
<path d="M0 0 C1.084021 0.00523682 2.16804199 0.01047363 3.28491211 0.01586914 C5.03964844 0.02070313 5.03964844 0.02070313 6.82983398 0.02563477 C8.67738281 0.03820312 8.67738281 0.03820312 10.56225586 0.05102539 C12.41560547 0.05779297 12.41560547 0.05779297 14.30639648 0.06469727 C17.37089703 0.07652931 20.43530307 0.09301366 23.49975586 0.11352539 C23.16975586 1.43352539 22.83975586 2.75352539 22.49975586 4.11352539 C22.16975586 3.78352539 21.83975586 3.45352539 21.49975586 3.11352539 C18.52975586 2.78352539 15.55975586 2.45352539 12.49975586 2.11352539 C12.82975586 10.36352539 13.15975586 18.61352539 13.49975586 27.11352539 C11.51975586 27.11352539 9.53975586 27.11352539 7.49975586 27.11352539 C7.82975586 18.86352539 8.15975586 10.61352539 8.49975586 2.11352539 C5.19975586 2.11352539 1.89975586 2.11352539 -1.50024414 2.11352539 C-1.83024414 3.10352539 -2.16024414 4.09352539 -2.50024414 5.11352539 C-3.06274414 3.17602539 -3.06274414 3.17602539 -3.50024414 1.11352539 C-2.50024414 0.11352539 -2.50024414 0.11352539 0 0 Z " fill="#095189" transform="translate(3.500244140625,374.886474609375)"/>
<path d="M0 0 C8.58 0 17.16 0 26 0 C26 0.99 26 1.98 26 3 C20.555 2.505 20.555 2.505 15 2 C15.33 10.25 15.66 18.5 16 27 C14.02 27 12.04 27 10 27 C10.33 18.75 10.66 10.5 11 2 C2.65850618 2.22919044 2.65850618 2.22919044 -1 5 C-0.67 3.35 -0.34 1.7 0 0 Z " fill="#13588E" transform="translate(61,420)"/>
<path d="M0 0 C3.63 0 7.26 0 11 0 C10.01 0.33 9.02 0.66 8 1 C8.33 8.92 8.66 16.84 9 25 C11.97 25 14.94 25 18 25 C18.66 24.34 19.32 23.68 20 23 C20 24.32 20 25.64 20 27 C14.39 27 8.78 27 3 27 C3.03480469 25.21851563 3.06960937 23.43703125 3.10546875 21.6015625 C3.13359994 19.27605106 3.16090081 16.95052947 3.1875 14.625 C3.21263672 13.449375 3.23777344 12.27375 3.26367188 11.0625 C3.27333984 9.94101562 3.28300781 8.81953125 3.29296875 7.6640625 C3.3086792 6.62717285 3.32438965 5.5902832 3.34057617 4.52197266 C3.22818604 3.68972168 3.1157959 2.8574707 3 2 C2.01 1.34 1.02 0.68 0 0 Z " fill="#175B90" transform="translate(157,375)"/>
<path d="M0 0 C2.7421875 -0.26953125 2.7421875 -0.26953125 6 0 C8.1953125 1.86328125 8.1953125 1.86328125 10.125 4.3125 C12.55987214 7.34875623 14.78226132 9.79048611 18 12 C15.75026553 12.054138 13.50015617 12.09285491 11.25 12.125 C9.99703125 12.14820313 8.7440625 12.17140625 7.453125 12.1953125 C4 12 4 12 0 10 C0 6.7 0 3.4 0 0 Z " fill="#F3F7F9" transform="translate(103,436)"/>
<path d="M0 0 C7 0 7 0 8.9375 1.0625 C10.55479605 4.01168691 10.18630138 6.70867559 10 10 C8.35 10.66 6.7 11.32 5 12 C5 12.66 5 13.32 5 14 C4.01 14 3.02 14 2 14 C1.67 17.3 1.34 20.6 1 24 C0.67 24 0.34 24 0 24 C0 16.08 0 8.16 0 0 Z " fill="#E8EEF3" transform="translate(11,422)"/>
<path d="M0 0 C2.97 0 5.94 0 9 0 C8.67 0.66 8.34 1.32 8 2 C7.34 2 6.68 2 6 2 C6.08057261 5.95918677 6.19343945 9.91679837 6.3125 13.875 C6.33505859 15.00292969 6.35761719 16.13085938 6.38085938 17.29296875 C6.41630859 18.36933594 6.45175781 19.44570313 6.48828125 20.5546875 C6.51446533 21.54968262 6.54064941 22.54467773 6.56762695 23.56982422 C6.78165161 24.77276123 6.78165161 24.77276123 7 26 C7.99 26.66 8.98 27.32 10 28 C6.7 28 3.4 28 0 28 C0.66 27.67 1.32 27.34 2 27 C1.86160047 22.87471501 1.7130259 18.74985892 1.5625 14.625 C1.52318359 13.449375 1.48386719 12.27375 1.44335938 11.0625 C1.40146484 9.94101562 1.35957031 8.81953125 1.31640625 7.6640625 C1.27974854 6.62717285 1.24309082 5.5902832 1.20532227 4.52197266 C1.15835777 2.00574834 1.15835777 2.00574834 0 0 Z " fill="#256597" transform="translate(207,329)"/>
<path d="M0 0 C6.30818278 -0.35706695 6.30818278 -0.35706695 8.9375 1 C10.74093769 4.39470625 10.36262436 7.19244425 10 11 C6.55892734 13.29404844 5.03160191 13.26293056 1 13 C0 12 0 12 -0.09765625 9.27734375 C-0.08605469 8.17519531 -0.07445313 7.07304687 -0.0625 5.9375 C-0.05347656 4.83277344 -0.04445313 3.72804688 -0.03515625 2.58984375 C-0.02355469 1.73519531 -0.01195313 0.88054687 0 0 Z " fill="#F1F5F8" transform="translate(103,422)"/>
<path d="M0 0 C1.98 0 3.96 0 6 0 C5.98428955 0.74685059 5.9685791 1.49370117 5.95239258 2.26318359 C5.89018923 5.63371261 5.8510558 9.00412112 5.8125 12.375 C5.78736328 13.550625 5.76222656 14.72625 5.73632812 15.9375 C5.72666016 17.05898438 5.71699219 18.18046875 5.70703125 19.3359375 C5.6913208 20.37282715 5.67561035 21.4097168 5.65942383 22.47802734 C5.82800903 23.72640381 5.82800903 23.72640381 6 25 C6.99 25.66 7.98 26.32 9 27 C5.37 27 1.74 27 -2 27 C-1.34 26.34 -0.68 25.68 0 25 C0.27827252 22.3784358 0.27827252 22.3784358 0.1953125 19.3359375 C0.18886719 18.21445312 0.18242187 17.09296875 0.17578125 15.9375 C0.15902344 14.761875 0.14226562 13.58625 0.125 12.375 C0.11146484 10.59996094 0.11146484 10.59996094 0.09765625 8.7890625 C0.07402812 5.85917477 0.04108514 2.9296866 0 0 Z " fill="#12578D" transform="translate(256,330)"/>
<path d="M0 0 C1.98 0 3.96 0 6 0 C5.98428955 0.74685059 5.9685791 1.49370117 5.95239258 2.26318359 C5.89018923 5.63371261 5.8510558 9.00412112 5.8125 12.375 C5.78736328 13.550625 5.76222656 14.72625 5.73632812 15.9375 C5.72666016 17.05898438 5.71699219 18.18046875 5.70703125 19.3359375 C5.6913208 20.37282715 5.67561035 21.4097168 5.65942383 22.47802734 C5.82800903 23.72640381 5.82800903 23.72640381 6 25 C6.99 25.66 7.98 26.32 9 27 C5.37 27 1.74 27 -2 27 C-1.34 26.34 -0.68 25.68 0 25 C0.27827252 22.3784358 0.27827252 22.3784358 0.1953125 19.3359375 C0.18886719 18.21445312 0.18242188 17.09296875 0.17578125 15.9375 C0.15902344 14.761875 0.14226562 13.58625 0.125 12.375 C0.11146484 10.59996094 0.11146484 10.59996094 0.09765625 8.7890625 C0.07402812 5.85917477 0.04108514 2.9296866 0 0 Z " fill="#13588E" transform="translate(78,330)"/>
<path d="M0 0 C3.3 0 6.6 0 10 0 C9.34 0.66 8.68 1.32 8 2 C7.72172748 4.6215642 7.72172748 4.6215642 7.8046875 7.6640625 C7.81113281 8.78554688 7.81757813 9.90703125 7.82421875 11.0625 C7.84935547 12.8259375 7.84935547 12.8259375 7.875 14.625 C7.88402344 15.80835938 7.89304687 16.99171875 7.90234375 18.2109375 C7.92597188 21.14082523 7.95891486 24.0703134 8 27 C6.02 27 4.04 27 2 27 C2.01047363 26.25314941 2.02094727 25.50629883 2.03173828 24.73681641 C2.0732077 21.36624492 2.09929729 17.995727 2.125 14.625 C2.14175781 13.449375 2.15851563 12.27375 2.17578125 11.0625 C2.18222656 9.94101562 2.18867188 8.81953125 2.1953125 7.6640625 C2.20578613 6.62717285 2.21625977 5.5902832 2.22705078 4.52197266 C2.25615026 1.82891377 2.25615026 1.82891377 0 0 Z " fill="#10568D" transform="translate(253,375)"/>
<path d="M0 0 C6 0 6 0 8.375 1.625 C10.45406883 4.66363906 10.46155369 6.38449608 10 10 C9.01 11.485 9.01 11.485 8 13 C6.0546875 13.29296875 6.0546875 13.29296875 3.875 13.1875 C1.956875 13.0946875 1.956875 13.0946875 0 13 C0 8.71 0 4.42 0 0 Z " fill="#F7F9FB" transform="translate(158,331)"/>
<path d="M0 0 C6.57080668 -0.54756722 11.54831857 0.09680086 17 4 C20.00218705 7.37746043 20.5300537 10.48945458 20.359375 15.00390625 C19.76317469 18.31541016 18.11868967 20.45757239 16 23 C15.01 23.66 14.02 24.32 13 25 C13 22 13 22 14 20 C14.56885789 14.49833153 15.03389741 9.66757647 12.0625 4.875 C8.15934523 2.4853134 4.49234131 1.65574481 0 1 C0 0.67 0 0.34 0 0 Z " fill="#13588E" transform="translate(192,375)"/>
<path d="M0 0 C3.53508103 0.29459009 4.76203444 0.74881413 7.25 3.375 C10.08800004 7.63200006 10.42804675 10.94904831 10 16 C7.9519061 19.80360295 5.83968286 22.89436746 2 25 C1.01 24.67 0.02 24.34 -1 24 C-0.195625 23.360625 0.60875 22.72125 1.4375 22.0625 C4.73188009 18.12531404 5.33148493 15.07082352 5 10 C3.8084595 6.69871355 3.8084595 6.69871355 2 4 C1.33333333 2.66666667 0.66666667 1.33333333 0 0 Z " fill="#0C538B" transform="translate(153,421)"/>
<path d="M0 0 C6.73891938 0.11618827 6.73891938 0.11618827 9.8671875 2.30859375 C12.96934305 5.52207068 14.38941515 8.12479383 14.5625 12.625 C14.29077957 16.42261653 13.45359773 19.00115834 11 22 C10.01 22.66 9.02 23.32 8 24 C7.67 23.34 7.34 22.68 7 22 C7.6655384 20.66610313 8.33236592 19.33284919 9 18 C9.57889354 13.24115461 9.63023426 8.13322526 7 4 C4.54295238 2.76709799 4.54295238 2.76709799 2 2 C1.34 1.34 0.68 0.68 0 0 Z " fill="#095289" transform="translate(140,375)"/>
<path d="M0 0 C3.3 0 6.6 0 10 0 C8.515 1.485 8.515 1.485 7 3 C6.57177156 5.26726162 6.57177156 5.26726162 6.671875 7.78125 C6.67960937 9.16763672 6.67960937 9.16763672 6.6875 10.58203125 C6.708125 11.54496094 6.72875 12.50789063 6.75 13.5 C6.75515625 14.46292969 6.7603125 15.42585938 6.765625 16.41796875 C6.79812849 21.7957293 6.79812849 21.7957293 8 27 C6.02 27 4.04 27 2 27 C2.01047363 26.25314941 2.02094727 25.50629883 2.03173828 24.73681641 C2.0732077 21.36624492 2.09929729 17.995727 2.125 14.625 C2.14175781 13.449375 2.15851562 12.27375 2.17578125 11.0625 C2.18222656 9.94101562 2.18867187 8.81953125 2.1953125 7.6640625 C2.20578613 6.62717285 2.21625977 5.5902832 2.22705078 4.52197266 C2.25615026 1.82891377 2.25615026 1.82891377 0 0 Z " fill="#085189" transform="translate(55,375)"/>
<path d="M0 0 C0.66 0 1.32 0 2 0 C3.32 3.63 4.64 7.26 6 11 C2.7 11 -0.6 11 -4 11 C-4.33 14.3 -4.66 17.6 -5 21 C-7.97 21 -10.94 21 -14 21 C-12.8553125 19.9790625 -12.8553125 19.9790625 -11.6875 18.9375 C-9.35961194 16.39306421 -8.56521129 15.28855541 -7.4375 12.25 C-6.7259375 10.64125 -6.7259375 10.64125 -6 9 C-4.68 8.67 -3.36 8.34 -2 8 C-1.34 5.36 -0.68 2.72 0 0 Z " fill="#336F9D" transform="translate(221,426)"/>
<path d="M0 0 C1.32 0 2.64 0 4 0 C4.08138426 2.87557703 4.14067851 5.74882262 4.1875 8.625 C4.22520508 9.83736328 4.22520508 9.83736328 4.26367188 11.07421875 C4.32556951 16.14982518 3.85507243 19.61590775 1 24 C-3.1 27 -3.1 27 -6 27 C-6 26.34 -6 25.68 -6 25 C-5.38125 24.7525 -4.7625 24.505 -4.125 24.25 C-1.5565021 22.73911888 -1.09090039 21.73663962 0 19 C0.27224809 16.78064407 0.27224809 16.78064407 0.1953125 14.453125 C0.18886719 13.60878906 0.18242187 12.76445312 0.17578125 11.89453125 C0.15902344 11.02183594 0.14226563 10.14914062 0.125 9.25 C0.11597656 8.36183594 0.10695313 7.47367187 0.09765625 6.55859375 C0.07414577 4.37211942 0.04128499 2.18619906 0 0 Z " fill="#1F6194" transform="translate(26,330)"/>
<path d="M0 0 C2 3 2 3 2.6875 5.3125 C4.58869487 9.20542284 7.43205277 11.59584672 11 14 C13.75764351 14.94240924 13.75764351 14.94240924 16 15 C16 15.33 16 15.66 16 16 C8.05459387 16.62316911 8.05459387 16.62316911 4.25 14.375 C2.5293719 12.55878145 1.07193116 10.78856918 -0.4375 8.8125 C-2.77147063 5.73985677 -2.77147063 5.73985677 -6.3125 5.125 C-7.199375 5.08375 -8.08625 5.0425 -9 5 C-8.67 4.34 -8.34 3.68 -8 3 C-5.66666667 2.66666667 -3.33333333 2.33333333 -1 2 C-0.67 1.34 -0.34 0.68 0 0 Z " fill="#206194" transform="translate(167,341)"/>
<path d="M0 0 C2.97 0 5.94 0 9 0 C8.67 0.66 8.34 1.32 8 2 C7.84621148 3.95774069 7.75028537 5.92017352 7.68359375 7.8828125 C7.64169922 9.04941406 7.59980469 10.21601563 7.55664062 11.41796875 C7.49766602 13.25294922 7.49766602 13.25294922 7.4375 15.125 C7.39431641 16.35605469 7.35113281 17.58710938 7.30664062 18.85546875 C7.20031296 21.90352853 7.09828219 24.9516719 7 28 C6.67 28 6.34 28 6 28 C4.25324198 22.00325593 3.74317158 16.72635779 3.875 10.5 C3.88402344 9.67757813 3.89304688 8.85515625 3.90234375 8.0078125 C3.92563135 6.00507917 3.96149041 4.00249846 4 2 C2.68 1.67 1.36 1.34 0 1 C0 0.67 0 0.34 0 0 Z " fill="#3C75A1" transform="translate(59,329)"/>
<path d="M0 0 C2.37625177 -0.10883596 4.74743976 -0.18766696 7.125 -0.25 C7.79015625 -0.28351563 8.4553125 -0.31703125 9.140625 -0.3515625 C14.25631945 -0.45187023 17.12136328 0.70345578 21 4 C21.6875 6.9375 21.6875 6.9375 21 10 C18.75 12.9375 18.75 12.9375 16 15 C13.6875 14.8125 13.6875 14.8125 12 14 C13.32 13.34 14.64 12.68 16 12 C16.16677282 8.58343976 16.16677282 8.58343976 16 5 C13.32656014 2.32656014 11.72300153 2.67899046 8 2.5 C2.22222222 2.22222222 2.22222222 2.22222222 0 0 Z " fill="#2C6A9A" transform="translate(4,420)"/>
<path d="M0 0 C0.66 0.33 1.32 0.66 2 1 C2.37890625 3.51953125 2.37890625 3.51953125 2.5625 6.8125 C2.63855469 7.98039062 2.71460938 9.14828125 2.79296875 10.3515625 C2.92742152 12.72097547 3.05540018 15.09076794 3.17578125 17.4609375 C3.24152344 18.52570313 3.30726562 19.59046875 3.375 20.6875 C3.42398438 21.66074219 3.47296875 22.63398438 3.5234375 23.63671875 C3.7844621 26.36618427 3.7844621 26.36618427 7 28 C3.7 28 0.4 28 -3 28 C-2.34 27.34 -1.68 26.68 -1 26 C-0.62792646 23.28384136 -0.62792646 23.28384136 -0.5859375 20.1171875 C-0.54726563 18.95058594 -0.50859375 17.78398437 -0.46875 16.58203125 C-0.4378125 15.35871094 -0.406875 14.13539063 -0.375 12.875 C-0.33632813 11.64394531 -0.29765625 10.41289062 -0.2578125 9.14453125 C-0.1633001 6.09650624 -0.07774506 3.04849138 0 0 Z " fill="#246496" transform="translate(37,329)"/>
<path d="M0 0 C0 2.31 0 4.62 0 7 C-0.226875 6.360625 -0.45375 5.72125 -0.6875 5.0625 C-1.81345498 2.83065562 -1.81345498 2.83065562 -4.0625 2.25 C-12.89013527 1.49871189 -18.37655123 2.20811792 -26 7 C-26 6.01 -26 5.02 -26 4 C-18.2134446 -2.15681124 -9.41114865 -1.93049203 0 0 Z " fill="#2E6C9B" transform="translate(245,375)"/>
<path d="M0 0 C0.66 0.33 1.32 0.66 2 1 C2.33 7.6 2.66 14.2 3 21 C3.99 21.33 4.98 21.66 6 22 C2.7 22 -0.6 22 -4 22 C-3.01 21.34 -2.02 20.68 -1 20 C-0.49297483 17.87893205 -0.49297483 17.87893205 -0.48828125 15.4296875 C-0.43510742 14.08583984 -0.43510742 14.08583984 -0.38085938 12.71484375 C-0.35830078 11.77769531 -0.33574219 10.84054687 -0.3125 9.875 C-0.27833984 8.93011719 -0.24417969 7.98523438 -0.20898438 7.01171875 C-0.12635888 4.67459747 -0.05726012 2.33785809 0 0 Z " fill="#0E558B" transform="translate(173,426)"/>
<path d="M0 0 C1.98 0 3.96 0 6 0 C5.67 3.96 5.34 7.92 5 12 C3.68 12.33 2.36 12.66 1 13 C0.34 12.34 -0.32 11.68 -1 11 C-0.34 11 0.32 11 1 11 C0.67 7.37 0.34 3.74 0 0 Z " fill="#064F88" transform="translate(240,389)"/>
<path d="M0 0 C0.76183594 -0.01417969 1.52367187 -0.02835937 2.30859375 -0.04296875 C4.79597315 0.21137334 6.41058106 0.94732804 8.5625 2.1875 C7.9025 2.8475 7.2425 3.5075 6.5625 4.1875 C5.5725 3.8575 4.5825 3.5275 3.5625 3.1875 C-1.84658675 2.83852666 -4.98720489 2.78433315 -9.4375 6.1875 C-10.0975 6.8475 -10.7575 7.5075 -11.4375 8.1875 C-12.4275 8.5175 -13.4175 8.8475 -14.4375 9.1875 C-12.94271886 5.38260255 -10.74307786 3.52559165 -7.4375 1.1875 C-4.66697819 0.26399273 -2.87061242 0.02420415 0 0 Z " fill="#195C91" transform="translate(145.4375,418.8125)"/>
<path d="M0 0 C2.89238543 4.33857815 2.3906925 8.86326757 2.47851562 13.92773438 C2.55033705 15.9580034 2.7661154 17.98196912 3 20 C3.99 20.66 4.98 21.32 6 22 C3.36 22 0.72 22 -2 22 C-1.67 21.34 -1.34 20.68 -1 20 C-0.84876169 18.4804236 -0.75118307 16.95527498 -0.68359375 15.4296875 C-0.64169922 14.53378906 -0.59980469 13.63789063 -0.55664062 12.71484375 C-0.49766602 11.30912109 -0.49766602 11.30912109 -0.4375 9.875 C-0.39431641 8.93011719 -0.35113281 7.98523438 -0.30664062 7.01171875 C-0.20040928 4.67462908 -0.09836824 2.3374317 0 0 Z " fill="#034D86" transform="translate(88,380)"/>
<path d="M0 0 C0.99386719 0.00902344 1.98773438 0.01804687 3.01171875 0.02734375 C4.15060547 0.04474609 4.15060547 0.04474609 5.3125 0.0625 C1.73470029 2.44769981 -1.12902762 2.761127 -5.3125 3.40234375 C-7.98506429 4.14521113 -8.92628456 4.97105666 -10.6875 7.0625 C-11.3475 7.7225 -12.0075 8.3825 -12.6875 9.0625 C-13.6775 9.0625 -14.6675 9.0625 -15.6875 9.0625 C-14.19271886 5.25760255 -11.99307786 3.40059165 -8.6875 1.0625 C-5.53819107 0.01273036 -3.29935544 -0.03881595 0 0 Z " fill="#35709E" transform="translate(137.6875,373.9375)"/>
<path d="M0 0 C2.97 0 5.94 0 9 0 C8.01 0.66 7.02 1.32 6 2 C4.16284557 3.32806344 2.32992384 4.66199117 0.5 6 C-2.30697311 8.05241045 -5.10648839 10.07099226 -8 12 C-8 9 -8 9 -6.25 7.24609375 C-5.5075 6.64925781 -4.765 6.05242187 -4 5.4375 C-2.63207885 4.33318866 -1.28971631 3.19471488 0 2 C0 1.34 0 0.68 0 0 Z " fill="#1F6193" transform="translate(73,375)"/>
<path d="M0 0 C2.97 0 5.94 0 9 0 C8.34 0.66 7.68 1.32 7 2 C6.63105418 4.03060659 6.63105418 4.03060659 6.5859375 6.3515625 C6.52792969 7.62773437 6.52792969 7.62773437 6.46875 8.9296875 C6.4378125 9.81914062 6.406875 10.70859375 6.375 11.625 C6.33632812 12.5221875 6.29765625 13.419375 6.2578125 14.34375 C6.16340643 16.5622927 6.07783252 18.78082403 6 21 C5.67 21 5.34 21 5 21 C4.95512451 20.43490723 4.91024902 19.86981445 4.86401367 19.28759766 C4.65292841 16.73196765 4.42049045 14.1787221 4.1875 11.625 C4.11724609 10.73554688 4.04699219 9.84609375 3.97460938 8.9296875 C3.89404297 8.07890625 3.81347656 7.228125 3.73046875 6.3515625 C3.66239014 5.56604004 3.59431152 4.78051758 3.52416992 3.97119141 C3.12842605 1.6078263 3.12842605 1.6078263 0 0 Z " fill="#0A5289" transform="translate(109,375)"/>
<path d="M0 0 C2.97 0 5.94 0 9 0 C7.8553125 1.3303125 7.8553125 1.3303125 6.6875 2.6875 C4.98059869 4.7174589 3.66756177 6.56637624 2.3125 8.875 C1.879375 9.57625 1.44625 10.2775 1 11 C0.34 11 -0.32 11 -1 11 C-0.84402344 10.37351562 -0.68804687 9.74703125 -0.52734375 9.1015625 C-0.33269531 8.28429687 -0.13804688 7.46703125 0.0625 6.625 C0.25972656 5.81289063 0.45695312 5.00078125 0.66015625 4.1640625 C1.22109319 1.95838716 1.22109319 1.95838716 0 0 Z " fill="#306D9C" transform="translate(114,329)"/>
<path d="M0 0 C0.66 0 1.32 0 2 0 C2.99 2.97 3.98 5.94 5 9 C2.36 9 -0.28 9 -3 9 C-2.01 6.03 -1.02 3.06 0 0 Z " fill="#EFF3F7" transform="translate(221,426)"/>
<path d="M0 0 C1.32 0 2.64 0 4 0 C3.67 6.93 3.34 13.86 3 21 C2.67 21 2.34 21 2 21 C1.34 14.07 0.68 7.14 0 0 Z " fill="#014C85" transform="translate(197,421)"/>
<path d="M0 0 C1.00023193 0.00523682 2.00046387 0.01047363 3.03100586 0.01586914 C4.1105957 0.0190918 5.19018555 0.02231445 6.30249023 0.02563477 C8.00695312 0.03820312 8.00695312 0.03820312 9.74584961 0.05102539 C11.45611328 0.05779297 11.45611328 0.05779297 13.20092773 0.06469727 C16.02845312 0.07652792 18.85587601 0.09301129 21.68334961 0.11352539 C21.68334961 0.44352539 21.68334961 0.77352539 21.68334961 1.11352539 C14.09334961 1.44352539 6.50334961 1.77352539 -1.31665039 2.11352539 C-1.64665039 3.10352539 -1.97665039 4.09352539 -2.31665039 5.11352539 C-2.87915039 3.17602539 -2.87915039 3.17602539 -3.31665039 1.11352539 C-2.31665039 0.11352539 -2.31665039 0.11352539 0 0 Z " fill="#38729F" transform="translate(3.316650390625,374.886474609375)"/>
<path d="M0 0 C0.5625 1.9375 0.5625 1.9375 1 4 C0 5 0 5 -3.81640625 5.09765625 C-5.39846682 5.09098089 -6.98051159 5.07901875 -8.5625 5.0625 C-9.36880859 5.05798828 -10.17511719 5.05347656 -11.00585938 5.04882812 C-13.00393756 5.03700518 -15.00197783 5.01906914 -17 5 C-17 4.34 -17 3.68 -17 3 C-15.85660156 2.95101563 -14.71320312 2.90203125 -13.53515625 2.8515625 C-12.04424527 2.77654811 -10.55336108 2.70099972 -9.0625 2.625 C-8.30775391 2.5940625 -7.55300781 2.563125 -6.77539062 2.53125 C-4.84492605 2.4273685 -2.92057919 2.22104386 -1 2 C-0.67 1.34 -0.34 0.68 0 0 Z " fill="#4279A4" transform="translate(52,443)"/>
<path d="M0 0 C5.61 0 11.22 0 17 0 C17 1.65 17 3.3 17 5 C16.34 4.34 15.68 3.68 15 3 C12.84135505 2.75005164 10.6709433 2.59605944 8.5 2.5 C2.22222222 2.22222222 2.22222222 2.22222222 0 0 Z " fill="#2E6B9B" transform="translate(32,375)"/>
<path d="M0 0 C0.66 0 1.32 0 2 0 C2.185625 0.61875 2.37125 1.2375 2.5625 1.875 C4.71437233 5.05602866 7.37533763 5.19451947 11 6 C11 6.33 11 6.66 11 7 C9.54207116 7.05399736 8.08357288 7.09279177 6.625 7.125 C5.81289062 7.14820313 5.00078125 7.17140625 4.1640625 7.1953125 C2 7 2 7 0 5 C-0.125 2.375 -0.125 2.375 0 0 Z " fill="#3A74A1" transform="translate(245,441)"/>
<path d="M0 0 C0.66 0 1.32 0 2 0 C2.165 0.639375 2.33 1.27875 2.5 1.9375 C3.781786 4.16119241 3.781786 4.16119241 5.9140625 4.48828125 C7.93575155 4.7275978 9.96841939 4.86893028 12 5 C7.80117625 7.79921583 5.87872887 6.86558093 1 6 C0 5 0 5 -0.0625 2.4375 C-0.041875 1.633125 -0.02125 0.82875 0 0 Z " fill="#336F9D" transform="translate(183,351)"/>
<path d="M0 0 C0 0.66 0 1.32 0 2 C-1.7015625 2.4021875 -1.7015625 2.4021875 -3.4375 2.8125 C-4.613125 3.204375 -5.78875 3.59625 -7 4 C-7.33 4.99 -7.66 5.98 -8 7 C-10.0625 7.6875 -10.0625 7.6875 -12 8 C-10.01351708 2.43784783 -5.71424233 0 0 0 Z " fill="#266697" transform="translate(192,375)"/>
<path d="M0 0 C4.29 0.33 8.58 0.66 13 1 C11 3 11 3 8.6171875 3.1953125 C7.71226562 3.17210937 6.80734375 3.14890625 5.875 3.125 C4.50988281 3.09792969 4.50988281 3.09792969 3.1171875 3.0703125 C2.41851562 3.04710937 1.71984375 3.02390625 1 3 C0.67 2.01 0.34 1.02 0 0 Z " fill="#2E6C9B" transform="translate(228,400)"/>
<path d="M0 0 C0.99 0.33 1.98 0.66 3 1 C1.35 4.3 -0.3 7.6 -2 11 C-2.66 10.67 -3.32 10.34 -4 10 C-2.8905928 6.51329166 -1.73662334 3.22515763 0 0 Z " fill="#1C5F92" transform="translate(112,340)"/>
<path d="M0 0 C0.33 1.98 0.66 3.96 1 6 C-1.97 6 -4.94 6 -8 6 C-2.15384615 0 -2.15384615 0 0 0 Z " fill="#1D5F93" transform="translate(215,441)"/>
<path d="M0 0 C3.3 0 6.6 0 10 0 C10 1.98 10 3.96 10 6 C9.67 5.01 9.34 4.02 9 3 C6.89415562 2.19436362 6.89415562 2.19436362 4.4375 1.8125 C3.61121094 1.65394531 2.78492188 1.49539063 1.93359375 1.33203125 C1.29550781 1.22246094 0.65742188 1.11289062 0 1 C0 0.67 0 0.34 0 0 Z " fill="#3C75A2" transform="translate(189,329)"/>
<path d="M0 0 C3.3 0 6.6 0 10 0 C10.33 0.66 10.66 1.32 11 2 C8.24921116 2.91692961 6.64051087 3.10886083 3.8125 3.0625 C1.9253125 3.0315625 1.9253125 3.0315625 0 3 C0 2.01 0 1.02 0 0 Z " fill="#3F77A3" transform="translate(142,445)"/>
<path d="M0 0 C1.41623216 -0.05447047 2.83308191 -0.09300508 4.25 -0.125 C5.03890625 -0.14820313 5.8278125 -0.17140625 6.640625 -0.1953125 C9.20731941 0.0171622 10.7916067 0.71345895 13 2 C12.34 2.66 11.68 3.32 11 4 C7.37 3.01 3.74 2.02 0 1 C0 0.67 0 0.34 0 0 Z " fill="#497FA8" transform="translate(141,419)"/>
<path d="M0 0 C2.97 0 5.94 0 9 0 C3 4 3 4 0.8125 3.625 C0.214375 3.41875 -0.38375 3.2125 -1 3 C-0.67 2.01 -0.34 1.02 0 0 Z " fill="#2E6B9B" transform="translate(73,375)"/>
<path d="M0 0 C0.78375 0.04125 1.5675 0.0825 2.375 0.125 C2.375 2.435 2.375 4.745 2.375 7.125 C2.0346875 6.1659375 2.0346875 6.1659375 1.6875 5.1875 C0.52249104 2.85306339 0.52249104 2.85306339 -2.25 2.375 C-3.03375 2.2925 -3.8175 2.21 -4.625 2.125 C-2.625 0.125 -2.625 0.125 0 0 Z " fill="#226395" transform="translate(242.625,374.875)"/>
<path d="M0 0 C2.97 0 5.94 0 9 0 C9 1.65 9 3.3 9 5 C8.34 4.34 7.68 3.68 7 3 C4.67724823 2.59952556 2.34260643 2.2602896 0 2 C0 1.34 0 0.68 0 0 Z " fill="#326E9D" transform="translate(133,341)"/>
<path d="M0 0 C2.97 0 5.94 0 9 0 C8.67 1.32 8.34 2.64 8 4 C7.67 3.67 7.34 3.34 7 3 C4.67182036 2.63239269 2.3381615 2.29758419 0 2 C0 1.34 0 0.68 0 0 Z " fill="#246496" transform="translate(42,432)"/>
<path d="M0 0 C3.96 0.33 7.92 0.66 12 1 C12 1.33 12 1.66 12 2 C11.31292969 2.04898437 10.62585938 2.09796875 9.91796875 2.1484375 C8.56638672 2.26058594 8.56638672 2.26058594 7.1875 2.375 C6.29417969 2.44460938 5.40085937 2.51421875 4.48046875 2.5859375 C1.75601501 2.86645036 1.75601501 2.86645036 -1 5 C-0.67 3.35 -0.34 1.7 0 0 Z " fill="#1D5F93" transform="translate(61,420)"/>
<path d="M0 0 C0 1.65 0 3.3 0 5 C-0.66 5 -1.32 5 -2 5 C-2 4.34 -2 3.68 -2 3 C-4.64 3 -7.28 3 -10 3 C-10 2.67 -10 2.34 -10 2 C-8.52112267 1.66538533 -7.04188942 1.33234333 -5.5625 1 C-4.32693359 0.7215625 -4.32693359 0.7215625 -3.06640625 0.4375 C-1 0 -1 0 0 0 Z " fill="#447BA5" transform="translate(49,386)"/>
<path d="M0 0 C0.99 0.33 1.98 0.66 3 1 C2.1875 3.4375 2.1875 3.4375 1 6 C0.01 6.33 -0.98 6.66 -2 7 C-1.34 4.69 -0.68 2.38 0 0 Z " fill="#1F6194" transform="translate(218,428)"/>
<path d="M0 0 C2.97 0 5.94 0 9 0 C9 1.65 9 3.3 9 5 C8.443125 4.525625 7.88625 4.05125 7.3125 3.5625 C4.81653926 1.87604004 2.9553763 1.41046893 0 1 C0 0.67 0 0.34 0 0 Z " fill="#0E558B" transform="translate(252,420)"/>
</svg>
